ply
format ascii 1.0
comment created by MatGeom for Matlab
element vertex 806
property float x
property float y
property float z
element face 1409
property list uchar int vertex_index
end_header
318.068 376.727 100
319.516 374.982 100
321.319 373.48 100
323.479 372.221 100
325.669 371.075 100
327.924 370.239 100
330.243 369.712 100
332.627 369.494 100
335.076 369.586 100
337.56 369.872 100
340.044 370.159 100
342.528 370.446 100
345.012 370.732 100
347.495 371.019 100
349.979 371.305 100
352.424 371.707 100
354.801 372.309 100
357.109 373.11 100
359.35 374.112 100
361.523 375.314 100
363.667 376.6 100
365.811 377.887 100
367.907 379.231 100
369.605 380.817 100
370.906 382.645 100
371.809 384.714 100
372.314 387.026 100
372.47 389.521 100
372.626 392.017 100
372.763 394.513 100
372.782 397 100
372.661 399.477 100
372.401 401.942 100
372.013 404.398 100
371.261 406.558 100
370.103 408.314 100
368.561 409.666 100
366.635 410.617 100
364.312 411.163 100
361.848 411.592 100
359.385 412.02 100
356.922 412.448 100
354.458 412.877 100
351.992 413.273 100
349.535 413.459 100
347.087 413.432 100
344.647 413.191 100
342.217 412.738 100
339.799 412.105 100
337.381 411.469 100
334.963 410.832 100
332.603 410.151 100
330.436 409.325 100
328.469 408.215 100
326.703 406.819 100
325.137 405.139 100
323.713 403.219 100
322.297 401.159 100
320.88 399.098 100
319.464 397.038 100
318.08 394.958 100
316.924 392.81 100
316.127 390.579 100
315.69 388.266 100
315.611 385.871 100
315.859 383.414 100
316.24 380.942 100
316.976 378.714 100
322.417 357.69 110
324.544 356.562 110
326.811 355.664 110
329.216 354.995 110
331.622 354.327 110
334.027 353.659 110
336.441 353.089 110
338.869 352.707 110
341.313 352.514 110
343.771 352.509 110
346.245 352.694 110
348.727 352.97 110
351.208 353.245 110
353.673 353.57 110
356.079 354.082 110
358.425 354.782 110
360.711 355.669 110
362.938 356.743 110
365.12 357.956 110
367.303 359.168 110
369.485 360.381 110
371.664 361.596 110
373.645 363.008 110
375.427 364.616 110
377.011 366.421 110
378.396 368.423 110
379.585 370.618 110
380.774 372.813 110
381.963 375.008 110
383.152 377.203 110
384.341 379.398 110
385.53 381.594 110
386.7 383.794 110
387.604 386.051 110
388.173 388.36 110
388.405 390.718 110
388.303 393.128 110
387.883 395.583 110
387.394 398.031 110
386.869 400.462 110
386.118 402.783 110
385.14 404.993 110
383.934 407.092 110
382.502 409.081 110
380.877 410.977 110
379.252 412.872 110
377.628 414.768 110
375.882 416.439 110
373.996 417.913 110
371.97 419.19 110
369.804 420.27 110
367.498 421.153 110
365.173 422.063 110
362.848 422.973 110
360.523 423.882 110
358.198 424.792 110
355.873 425.702 110
353.533 426.509 110
351.159 427.1 110
348.752 427.475 110
346.312 427.633 110
343.839 427.575 110
341.348 427.403 110
338.858 427.232 110
336.367 427.06 110
333.876 426.888 110
331.386 426.716 110
328.895 426.544 110
326.405 426.373 110
323.999 425.977 110
321.696 425.311 110
319.495 424.375 110
317.396 423.168 110
315.4 421.692 110
313.421 420.17 110
311.545 418.597 110
309.834 416.897 110
308.249 415.081 110
306.791 413.149 110
305.459 411.1 110
304.151 408.986 110
302.806 406.884 110
301.46 404.781 110
300.114 402.678 110
298.768 400.575 110
297.422 398.473 110
296.077 396.37 110
294.731 394.267 110
293.976 392.217 110
293.83 390.222 110
294.294 388.282 110
295.366 386.396 110
297.047 384.565 110
298.745 382.736 110
300.444 380.906 110
302.147 379.081 110
303.718 377.206 110
305.292 375.334 110
306.868 373.463 110
308.446 371.596 110
310.023 369.726 110
311.734 367.908 110
313.445 366.09 110
315.156 364.272 110
316.867 362.454 110
318.578 360.636 110
320.428 359.048 110
332.312 355.916 120
334.608 355.305 120
337.007 355 120
339.511 355 120
342 355.108 120
344.471 355.35 120
346.923 355.727 120
349.357 356.237 120
351.773 356.881 120
354.185 357.551 120
356.598 358.222 120
358.987 358.941 120
361.311 359.805 120
363.569 360.812 120
365.761 361.963 120
367.887 363.258 120
369.97 364.647 120
372.053 366.036 120
374.137 367.424 120
376.22 368.813 120
378.227 370.284 120
380.128 371.87 120
381.921 373.573 120
383.606 375.391 120
385.185 377.326 120
386.731 379.295 120
388.278 381.263 120
389.55 383.281 120
390.36 385.382 120
390.707 387.566 120
390.591 389.833 120
390.013 392.183 120
389.246 394.566 120
388.48 396.95 120
387.714 399.334 120
386.948 401.717 120
386.182 404.101 120
385.416 406.484 120
384.65 408.868 120
383.713 411.148 120
382.576 413.305 120
381.238 415.339 120
379.7 417.251 120
377.96 419.04 120
376.19 420.81 120
374.411 422.567 120
372.509 424.121 120
370.484 425.473 120
368.336 426.623 120
366.065 427.57 120
363.679 428.329 120
361.293 429.089 120
358.907 429.848 120
356.522 430.607 120
354.136 431.366 120
351.733 432.036 120
349.315 432.642 120
346.881 433.184 120
344.432 433.663 120
341.966 434.077 120
339.502 434.518 120
337.037 434.958 120
334.572 435.398 120
332.108 435.838 120
329.643 436.278 120
327.178 436.718 120
324.723 437.122 120
322.379 437.115 120
320.145 436.696 120
318.023 435.866 120
316.01 434.624 120
314.099 433.007 120
312.188 431.39 120
310.386 429.722 120
308.76 427.927 120
307.284 426.013 120
305.958 423.978 120
304.782 421.823 120
303.647 419.599 120
302.485 417.381 120
301.323 415.163 120
300.162 412.945 120
299 410.727 120
297.935 408.486 120
297.087 406.187 120
296.444 403.832 120
296.008 401.421 120
295.777 398.953 120
295.655 396.453 120
295.524 393.952 120
295.392 391.452 120
295.269 388.956 120
295.568 386.653 120
296.29 384.544 120
297.434 382.63 120
299.001 380.909 120
300.982 379.378 120
302.963 377.847 120
304.944 376.316 120
306.925 374.785 120
308.906 373.254 120
310.887 371.723 120
312.868 370.193 120
314.687 368.567 120
316.528 367.054 120
318.37 365.542 120
320.213 364.031 120
322.056 362.52 120
324.062 361.106 120
326.047 359.58 120
328.031 358.053 120
330.119 356.832 120
363.405 353.092 130
365.3 354.361 130
366.996 355.995 130
368.521 357.971 130
370.072 359.925 130
371.65 361.858 130
373.255 363.769 130
374.887 365.659 130
376.519 367.549 130
378.151 369.438 130
379.783 371.328 130
381.415 373.217 130
383.047 375.107 130
384.679 376.996 130
386.372 378.753 130
387.953 380.567 130
389.408 382.46 130
390.736 384.434 130
391.938 386.486 130
392.954 388.751 130
393.954 391.039 130
394.955 393.326 130
395.714 395.651 130
396.221 398.015 130
396.476 400.418 130
396.478 402.86 130
396.227 405.342 130
395.966 407.825 130
395.704 410.308 130
395.337 412.731 130
394.623 414.957 130
393.561 416.986 130
392.152 418.818 130
390.396 420.453 130
388.399 421.951 130
386.372 423.367 130
384.246 424.506 130
382.02 425.369 130
379.696 425.956 130
377.271 426.266 130
374.777 426.382 130
372.283 426.498 130
369.789 426.614 130
367.295 426.73 130
364.801 426.846 130
362.307 426.962 130
359.813 427.078 130
357.319 427.194 130
354.825 427.31 130
352.331 427.426 130
349.837 427.542 130
347.343 427.658 130
344.849 427.773 130
342.355 427.842 130
339.862 427.853 130
337.369 427.806 130
334.877 427.7 130
332.386 427.539 130
329.896 427.365 130
327.405 427.191 130
324.914 427.017 130
322.424 426.844 130
319.933 426.67 130
317.442 426.496 130
314.951 426.322 130
312.461 426.148 130
309.97 425.975 130
307.479 425.801 130
304.989 425.627 130
302.498 425.453 130
300.099 425.128 130
297.933 424.413 130
296 423.31 130
294.301 421.818 130
292.836 419.938 130
291.513 417.82 130
290.189 415.703 130
288.866 413.586 130
287.845 411.413 130
287.187 409.175 130
286.891 406.87 130
286.958 404.499 130
287.388 402.061 130
287.877 399.613 130
288.367 397.165 130
288.857 394.717 130
289.498 392.343 130
290.368 390.081 130
291.467 387.93 130
292.794 385.891 130
294.349 383.964 130
295.981 382.075 130
297.613 380.185 130
299.245 378.295 130
300.877 376.406 130
302.509 374.516 130
304.141 372.627 130
305.775 370.74 130
307.505 368.964 130
309.331 367.301 130
311.254 365.749 130
313.273 364.31 130
315.386 362.979 130
317.498 361.649 130
319.611 360.319 130
321.724 358.989 130
323.837 357.658 130
325.95 356.328 130
328.062 354.998 130
330.175 353.667 130
332.307 352.41 130
334.513 351.455 130
336.795 350.801 130
339.153 350.449 130
341.586 350.399 130
344.077 350.577 130
346.567 350.755 130
349.058 350.933 130
351.548 351.111 130
354.038 351.288 130
356.529 351.466 130
359.019 351.644 130
361.311 352.186 130
333.085 361.934 140
335.466 361.874 140
337.875 362.125 140
340.312 362.687 140
342.735 363.295 140
345.138 363.971 140
347.519 364.715 140
349.88 365.527 140
352.22 366.408 140
354.553 367.311 140
356.885 368.214 140
359.218 369.117 140
361.551 370.02 140
363.883 370.923 140
366.216 371.826 140
368.549 372.729 140
370.882 373.632 140
373.167 374.604 140
375.329 375.761 140
377.366 377.102 140
379.279 378.628 140
381.067 380.338 140
382.778 382.163 140
384.488 383.988 140
386.199 385.813 140
387.91 387.637 140
389.529 389.522 140
390.997 391.503 140
392.314 393.582 140
393.48 395.758 140
394.496 398.031 140
395.452 400.342 140
396.408 402.654 140
397.365 404.965 140
398.321 407.276 140
399.278 409.588 140
400.234 411.899 140
401.191 414.21 140
402.135 416.524 140
402.888 418.876 140
403.45 421.266 140
403.821 423.693 140
404 426.159 140
404 428.661 140
404 431.162 140
403.707 433.49 140
402.976 435.557 140
401.805 437.363 140
400.195 438.909 140
398.145 440.193 140
395.949 441.391 140
393.753 442.589 140
391.557 443.787 140
389.362 444.985 140
387.166 446.182 140
384.944 447.319 140
382.683 448.361 140
380.382 449.309 140
378.042 450.162 140
375.662 450.921 140
373.268 451.646 140
370.874 452.372 140
368.48 453.097 140
366.086 453.822 140
363.692 454.548 140
361.298 455.273 140
358.904 455.999 140
356.51 456.724 140
354.117 457.45 140
351.712 457.991 140
349.302 458.261 140
346.886 458.259 140
344.466 457.985 140
342.04 457.439 140
339.621 456.805 140
337.201 456.172 140
334.781 455.538 140
332.361 454.904 140
329.941 454.27 140
327.522 453.637 140
325.102 453.003 140
322.682 452.369 140
320.262 451.735 140
317.842 451.102 140
315.423 450.468 140
313.003 449.834 140
310.605 449.17 140
308.414 448.216 140
306.429 446.972 140
304.65 445.439 140
303.078 443.617 140
301.69 441.536 140
300.303 439.454 140
298.915 437.373 140
297.528 435.292 140
296.14 433.21 140
294.753 431.129 140
293.365 429.048 140
291.978 426.967 140
290.617 424.875 140
289.455 422.705 140
288.493 420.458 140
287.731 418.132 140
287.168 415.729 140
286.778 413.258 140
286.388 410.788 140
285.997 408.317 140
285.654 405.847 140
285.666 403.455 140
286.034 401.141 140
286.757 398.905 140
287.836 396.747 140
289.223 394.665 140
290.611 392.584 140
291.998 390.503 140
293.386 388.421 140
294.773 386.34 140
296.161 384.259 140
297.548 382.178 140
298.936 380.096 140
300.336 378.03 140
301.918 376.182 140
303.682 374.551 140
305.627 373.137 140
307.753 371.94 140
310.048 370.946 140
312.343 369.951 140
314.639 368.957 140
316.934 367.962 140
319.229 366.967 140
321.524 365.973 140
323.819 364.978 140
326.114 363.984 140
328.41 362.989 140
330.733 362.306 140
312 373.516 150
314.471 373.602 150
316.941 373.859 150
319.412 374.289 150
321.882 374.719 150
324.353 375.148 150
326.823 375.578 150
329.294 376.008 150
331.768 376.401 150
334.243 376.788 150
336.719 377.168 150
339.196 377.541 150
341.674 377.908 150
344.15 378.304 150
346.626 378.7 150
349.102 379.096 150
351.579 379.493 150
354.055 379.889 150
356.532 380.269 150
358.997 380.692 150
361.444 381.187 150
363.875 381.756 150
366.288 382.397 150
368.682 383.126 150
371.072 383.886 150
373.461 384.647 150
375.851 385.407 150
378.24 386.167 150
380.604 386.915 150
382.785 387.917 150
384.784 389.172 150
386.599 390.681 150
388.231 392.443 150
389.706 394.471 150
391.181 396.499 150
392.656 398.527 150
394.131 400.555 150
395.606 402.583 150
397.081 404.611 150
398.363 406.646 150
399.085 408.7 150
399.247 410.774 150
398.847 412.868 150
397.886 414.982 150
396.557 417.108 150
395.228 419.235 150
393.899 421.361 150
392.653 423.501 150
391.352 425.601 150
389.995 427.661 150
388.583 429.681 150
387.116 431.661 150
385.51 433.588 150
383.905 435.514 150
382.3 437.441 150
380.694 439.367 150
379.075 441.265 150
377.276 442.788 150
375.296 443.936 150
373.136 444.71 150
370.796 445.108 150
368.289 445.161 150
365.782 445.213 150
363.274 445.265 150
360.767 445.317 150
358.26 445.37 150
355.753 445.422 150
353.246 445.474 150
350.739 445.526 150
348.232 445.578 150
345.725 445.631 150
343.218 445.683 150
340.711 445.735 150
338.204 445.787 150
335.697 445.84 150
333.19 445.892 150
330.689 445.855 150
328.196 445.723 150
325.71 445.495 150
323.231 445.171 150
320.759 444.752 150
318.288 444.326 150
315.817 443.9 150
313.346 443.473 150
310.875 443.047 150
308.404 442.621 150
305.932 442.195 150
303.499 441.708 150
301.259 440.904 150
299.212 439.785 150
297.358 438.349 150
295.698 436.597 150
294.193 434.591 150
292.722 432.568 150
291.408 430.466 150
290.25 428.285 150
289.249 426.025 150
288.405 423.685 150
287.685 421.283 150
286.964 418.881 150
286.244 416.479 150
285.523 414.078 150
284.803 411.676 150
284.082 409.274 150
283.362 406.872 150
282.641 404.47 150
282.078 402.062 150
281.825 399.661 150
281.882 397.267 150
282.249 394.88 150
282.925 392.5 150
283.753 390.133 150
284.582 387.766 150
285.41 385.399 150
286.239 383.033 150
287.275 380.853 150
288.64 379.06 150
290.334 377.655 150
292.356 376.638 150
294.706 376.008 150
297.177 375.578 150
299.647 375.148 150
302.118 374.719 150
304.588 374.289 150
307.059 373.859 150
309.529 373.602 150
292.072 374.715 155
294.495 374.591 155
296.942 374.706 155
299.413 375.059 155
301.884 375.412 155
304.355 375.765 155
306.826 376.118 155
309.296 376.471 155
311.767 376.824 155
314.238 377.177 155
316.709 377.53 155
319.18 377.883 155
321.651 378.236 155
324.122 378.589 155
326.593 378.942 155
329.064 379.295 155
331.538 379.622 155
334.015 379.924 155
336.494 380.201 155
338.977 380.452 155
341.463 380.678 155
343.949 380.904 155
346.434 381.13 155
348.92 381.356 155
351.406 381.582 155
353.892 381.808 155
356.377 382.034 155
358.863 382.26 155
361.349 382.486 155
363.814 382.803 155
366.252 383.246 155
368.661 383.814 155
371.043 384.507 155
373.396 385.326 155
375.742 386.179 155
378.087 387.032 155
380.433 387.885 155
382.779 388.738 155
385.084 389.654 155
387.273 390.753 155
389.346 392.034 155
391.303 393.498 155
393.018 395.199 155
394.328 397.166 155
395.309 399.277 155
395.96 401.535 155
396.283 403.938 155
396.401 406.431 155
396.52 408.924 155
396.639 411.418 155
396.758 413.911 155
396.725 416.387 155
396.533 418.845 155
396.183 421.285 155
395.675 423.707 155
395.009 426.112 155
394.336 428.515 155
393.663 430.919 155
392.99 433.322 155
392.317 435.726 155
391.644 438.129 155
390.817 440.423 155
389.714 442.521 155
388.336 444.422 155
386.682 446.126 155
384.751 447.634 155
382.699 449.054 155
380.739 450.523 155
378.778 451.796 155
376.728 452.785 155
374.59 453.49 155
372.363 453.911 155
369.956 454 155
367.46 454 155
364.964 454 155
362.468 454 155
359.972 454 155
357.476 454 155
354.98 454 155
352.484 454 155
349.988 454 155
347.492 454 155
344.996 454 155
342.5 454 155
340.004 454 155
337.517 453.925 155
335.047 453.724 155
332.593 453.397 155
330.155 452.944 155
327.733 452.365 155
325.318 451.735 155
322.903 451.105 155
320.488 450.475 155
318.073 449.845 155
315.662 449.204 155
313.32 448.412 155
311.045 447.47 155
308.837 446.376 155
306.698 445.132 155
304.621 443.747 155
302.544 442.363 155
300.467 440.978 155
298.391 439.594 155
296.314 438.209 155
294.237 436.825 155
292.345 435.277 155
290.644 433.56 155
289.136 431.674 155
287.82 429.618 155
286.696 427.392 155
285.58 425.16 155
284.464 422.927 155
283.347 420.695 155
282.231 418.462 155
281.31 416.178 155
280.584 413.841 155
280.052 411.453 155
279.715 409.013 155
279.573 406.521 155
279.43 404.029 155
279.288 401.537 155
279.145 399.045 155
279.003 396.553 155
278.861 394.061 155
278.718 391.569 155
278.576 389.078 155
278.433 386.586 155
278.291 384.094 155
278.625 381.918 155
279.458 380.072 155
280.79 378.557 155
282.62 377.373 155
284.948 376.518 155
287.299 375.679 155
289.673 375.078 155
3 1 169 2
3 2 169 170
3 2 170 171
3 2 171 3
3 3 171 172
3 3 172 4
3 4 172 173
3 4 173 5
3 5 173 174
3 5 174 68
3 5 68 6
3 6 68 69
3 6 69 7
3 7 69 70
3 7 70 71
3 7 71 8
3 8 71 72
3 8 72 9
3 9 72 73
3 9 73 10
3 10 73 74
3 10 74 75
3 10 75 11
3 11 75 76
3 11 76 12
3 12 76 77
3 12 77 13
3 13 77 78
3 13 78 79
3 13 79 14
3 14 79 80
3 14 80 15
3 15 80 81
3 15 81 16
3 16 81 82
3 16 82 83
3 16 83 17
3 17 83 84
3 17 84 85
3 17 85 18
3 18 85 86
3 18 86 19
3 19 86 87
3 19 87 20
3 20 87 88
3 20 88 21
3 21 88 89
3 21 89 90
3 21 90 22
3 22 90 91
3 22 91 92
3 22 92 93
3 22 93 23
3 23 93 94
3 23 94 95
3 23 95 24
3 24 95 96
3 24 96 25
3 25 96 97
3 25 97 98
3 25 98 26
3 26 98 99
3 26 99 27
3 27 99 100
3 27 100 101
3 27 101 28
3 28 101 102
3 28 102 103
3 28 103 29
3 29 103 104
3 29 104 105
3 29 105 30
3 30 105 106
3 30 106 31
3 31 106 107
3 31 107 108
3 31 108 32
3 32 108 109
3 32 109 110
3 32 110 33
3 33 110 111
3 33 111 112
3 33 112 34
3 34 112 113
3 34 113 114
3 34 114 35
3 35 114 115
3 35 115 116
3 35 116 36
3 36 116 117
3 36 117 118
3 36 118 37
3 37 118 119
3 37 119 120
3 37 120 38
3 38 120 121
3 38 121 39
3 39 121 122
3 39 122 40
3 40 122 123
3 40 123 41
3 41 123 124
3 41 124 42
3 42 124 125
3 42 125 43
3 43 125 126
3 43 126 127
3 43 127 44
3 44 127 128
3 44 128 129
3 44 129 45
3 45 129 130
3 45 130 46
3 46 130 131
3 46 131 47
3 47 131 132
3 47 132 48
3 48 132 133
3 48 133 49
3 49 133 134
3 49 134 50
3 50 134 135
3 50 135 136
3 50 136 51
3 51 136 137
3 51 137 138
3 51 138 52
3 52 138 139
3 52 139 140
3 52 140 53
3 53 140 141
3 53 141 142
3 53 142 54
3 54 142 143
3 54 143 144
3 54 144 55
3 55 144 145
3 55 145 146
3 55 146 56
3 56 146 147
3 56 147 57
3 57 147 148
3 57 148 58
3 58 148 149
3 58 149 59
3 59 149 150
3 59 150 60
3 60 150 151
3 60 151 152
3 60 152 61
3 61 152 153
3 61 153 62
3 62 153 154
3 62 154 155
3 62 155 156
3 62 156 157
3 62 157 158
3 62 158 159
3 62 159 160
3 62 160 161
3 62 161 63
3 63 161 162
3 63 162 64
3 64 162 163
3 64 163 65
3 65 163 164
3 65 164 66
3 66 164 165
3 66 165 166
3 66 166 67
3 67 166 167
3 67 167 0
3 0 167 168
3 0 168 1
3 1 168 169
3 157 263 158
3 158 263 264
3 158 264 159
3 159 264 265
3 159 265 160
3 160 265 266
3 160 266 267
3 160 267 161
3 161 267 268
3 161 268 162
3 162 268 269
3 162 269 270
3 162 270 163
3 163 270 271
3 163 271 164
3 164 271 272
3 164 272 165
3 165 272 273
3 165 273 166
3 166 273 274
3 166 274 167
3 167 274 275
3 167 275 168
3 168 275 276
3 168 276 169
3 169 276 277
3 169 277 170
3 170 277 278
3 170 278 171
3 171 278 279
3 171 279 172
3 172 279 280
3 172 280 173
3 173 280 281
3 173 281 174
3 174 281 282
3 174 282 68
3 68 282 283
3 68 283 69
3 69 283 284
3 69 284 70
3 70 284 285
3 70 285 71
3 71 285 286
3 71 286 72
3 72 286 175
3 72 175 176
3 72 176 73
3 73 176 177
3 73 177 74
3 74 177 178
3 74 178 75
3 75 178 179
3 75 179 76
3 76 179 180
3 76 180 77
3 77 180 181
3 77 181 78
3 78 181 182
3 78 182 79
3 79 182 183
3 79 183 80
3 80 183 184
3 80 184 81
3 81 184 185
3 81 185 82
3 82 185 186
3 82 186 83
3 83 186 187
3 83 187 84
3 84 187 188
3 84 188 85
3 85 188 189
3 85 189 86
3 86 189 190
3 86 190 87
3 87 190 191
3 87 191 88
3 88 191 192
3 88 192 89
3 89 192 193
3 89 193 90
3 90 193 194
3 90 194 91
3 91 194 195
3 91 195 92
3 92 195 196
3 92 196 93
3 93 196 197
3 93 197 94
3 94 197 198
3 94 198 95
3 95 198 199
3 95 199 96
3 96 199 200
3 96 200 97
3 97 200 201
3 97 201 202
3 97 202 98
3 98 202 203
3 98 203 99
3 99 203 204
3 99 204 100
3 100 204 205
3 100 205 101
3 101 205 206
3 101 206 102
3 102 206 207
3 102 207 103
3 103 207 208
3 103 208 104
3 104 208 209
3 104 209 105
3 105 209 210
3 105 210 106
3 106 210 211
3 106 211 107
3 107 211 212
3 107 212 108
3 108 212 213
3 108 213 109
3 109 213 214
3 109 214 110
3 110 214 215
3 110 215 111
3 111 215 216
3 111 216 112
3 112 216 217
3 112 217 113
3 113 217 218
3 113 218 114
3 114 218 219
3 114 219 115
3 115 219 116
3 116 219 220
3 116 220 117
3 117 220 221
3 117 221 118
3 118 221 222
3 118 222 119
3 119 222 223
3 119 223 120
3 120 223 224
3 120 224 121
3 121 224 225
3 121 225 122
3 122 225 226
3 122 226 123
3 123 226 227
3 123 227 124
3 124 227 228
3 124 228 125
3 125 228 229
3 125 229 126
3 126 229 230
3 126 230 127
3 127 230 231
3 127 231 128
3 128 231 232
3 128 232 129
3 129 232 233
3 129 233 130
3 130 233 234
3 130 234 131
3 131 234 235
3 131 235 132
3 132 235 236
3 132 236 133
3 133 236 237
3 133 237 134
3 134 237 238
3 134 238 135
3 135 238 239
3 135 239 136
3 136 239 240
3 136 240 137
3 137 240 241
3 137 241 138
3 138 241 242
3 138 242 243
3 138 243 139
3 139 243 244
3 139 244 140
3 140 244 245
3 140 245 246
3 140 246 141
3 141 246 247
3 141 247 142
3 142 247 248
3 142 248 143
3 143 248 249
3 143 249 144
3 144 249 250
3 144 250 145
3 145 250 251
3 145 251 252
3 145 252 146
3 146 252 253
3 146 253 147
3 147 253 254
3 147 254 148
3 148 254 255
3 148 255 149
3 149 255 256
3 149 256 150
3 150 256 257
3 150 257 151
3 151 257 258
3 151 258 152
3 152 258 259
3 152 259 153
3 153 259 260
3 153 260 154
3 154 260 261
3 154 261 155
3 155 261 262
3 155 262 156
3 156 262 263
3 156 263 157
3 191 290 192
3 192 290 291
3 192 291 193
3 193 291 292
3 193 292 194
3 194 292 293
3 194 293 195
3 195 293 294
3 195 294 196
3 196 294 295
3 196 295 197
3 197 295 296
3 197 296 198
3 198 296 297
3 198 297 199
3 199 297 298
3 199 298 200
3 200 298 299
3 200 299 201
3 201 299 300
3 201 300 202
3 202 300 301
3 202 301 203
3 203 301 302
3 203 302 204
3 204 302 303
3 204 303 205
3 205 303 304
3 205 304 206
3 206 304 305
3 206 305 207
3 207 305 306
3 207 306 208
3 208 306 307
3 208 307 209
3 209 307 308
3 209 308 210
3 210 308 309
3 210 309 211
3 211 309 310
3 211 310 311
3 211 311 212
3 212 311 312
3 212 312 213
3 213 312 313
3 213 313 214
3 214 313 314
3 214 314 315
3 214 315 215
3 215 315 316
3 215 316 317
3 215 317 216
3 216 317 318
3 216 318 319
3 216 319 320
3 216 320 217
3 217 320 321
3 217 321 322
3 217 322 218
3 218 322 323
3 218 323 219
3 219 323 324
3 219 324 325
3 219 325 220
3 220 325 326
3 220 326 327
3 220 327 221
3 221 327 328
3 221 328 222
3 222 328 329
3 222 329 223
3 223 329 330
3 223 330 224
3 224 330 331
3 224 331 225
3 225 331 332
3 225 332 226
3 226 332 333
3 226 333 227
3 227 333 334
3 227 334 228
3 228 334 335
3 228 335 229
3 229 335 336
3 229 336 230
3 230 336 337
3 230 337 231
3 231 337 338
3 231 338 232
3 232 338 339
3 232 339 233
3 233 339 340
3 233 340 234
3 234 340 341
3 234 341 235
3 235 341 342
3 235 342 236
3 236 342 343
3 236 343 237
3 237 343 344
3 237 344 238
3 238 344 345
3 238 345 239
3 239 345 346
3 239 346 240
3 240 346 347
3 240 347 241
3 241 347 348
3 241 348 242
3 242 348 349
3 242 349 243
3 243 349 350
3 243 350 244
3 244 350 245
3 245 350 351
3 245 351 246
3 246 351 352
3 246 352 247
3 247 352 353
3 247 353 248
3 248 353 354
3 248 354 249
3 249 354 355
3 249 355 250
3 250 355 356
3 250 356 357
3 250 357 251
3 251 357 358
3 251 358 359
3 251 359 252
3 252 359 360
3 252 360 361
3 252 361 253
3 253 361 362
3 253 362 254
3 254 362 363
3 254 363 255
3 255 363 364
3 255 364 256
3 256 364 365
3 256 365 366
3 256 366 257
3 257 366 367
3 257 367 368
3 257 368 258
3 258 368 369
3 258 369 259
3 259 369 370
3 259 370 371
3 259 371 260
3 260 371 372
3 260 372 261
3 261 372 373
3 261 373 262
3 262 373 374
3 262 374 263
3 263 374 375
3 263 375 264
3 264 375 376
3 264 376 265
3 265 376 377
3 265 377 266
3 266 377 378
3 266 378 267
3 267 378 379
3 267 379 268
3 268 379 380
3 268 380 269
3 269 380 270
3 270 380 381
3 270 381 271
3 271 381 382
3 271 382 272
3 272 382 383
3 272 383 273
3 273 383 384
3 273 384 274
3 274 384 385
3 274 385 275
3 275 385 386
3 275 386 276
3 276 386 387
3 276 387 277
3 277 387 388
3 277 388 278
3 278 388 389
3 278 389 279
3 279 389 390
3 279 390 280
3 280 390 391
3 280 391 281
3 281 391 392
3 281 392 282
3 282 392 393
3 282 393 283
3 283 393 394
3 283 394 284
3 284 394 395
3 284 395 285
3 285 395 396
3 285 396 286
3 286 396 397
3 286 397 175
3 175 397 176
3 176 397 398
3 176 398 177
3 177 398 399
3 177 399 178
3 178 399 400
3 178 400 179
3 179 400 401
3 179 401 180
3 180 401 402
3 180 402 181
3 181 402 403
3 181 403 182
3 182 403 404
3 182 404 183
3 183 404 405
3 183 405 184
3 184 405 406
3 184 406 185
3 185 406 407
3 185 407 186
3 186 407 408
3 186 408 187
3 187 408 409
3 187 409 188
3 188 409 287
3 188 287 189
3 189 287 288
3 189 288 190
3 190 288 289
3 190 289 191
3 191 289 290
3 322 463 323
3 323 463 464
3 323 464 324
3 324 464 465
3 324 465 325
3 325 465 466
3 325 466 326
3 326 466 467
3 326 467 327
3 327 467 468
3 327 468 328
3 328 468 469
3 328 469 329
3 329 469 470
3 329 470 330
3 330 470 471
3 330 471 331
3 331 471 472
3 331 472 332
3 332 472 473
3 332 473 333
3 333 473 474
3 333 474 334
3 334 474 475
3 334 475 335
3 335 475 476
3 335 476 336
3 336 476 477
3 336 477 337
3 337 477 478
3 337 478 338
3 338 478 479
3 338 479 480
3 338 480 339
3 339 480 481
3 339 481 340
3 340 481 482
3 340 482 341
3 341 482 483
3 341 483 484
3 341 484 342
3 342 484 485
3 342 485 343
3 343 485 486
3 343 486 344
3 344 486 487
3 344 487 345
3 345 487 488
3 345 488 346
3 346 488 489
3 346 489 347
3 347 489 490
3 347 490 348
3 348 490 491
3 348 491 349
3 349 491 492
3 349 492 350
3 350 492 493
3 350 493 351
3 351 493 494
3 351 494 352
3 352 494 495
3 352 495 353
3 353 495 496
3 353 496 354
3 354 496 497
3 354 497 355
3 355 497 498
3 355 498 356
3 356 498 499
3 356 499 357
3 357 499 500
3 357 500 358
3 358 500 501
3 358 501 359
3 359 501 360
3 360 501 502
3 360 502 361
3 361 502 503
3 361 503 362
3 362 503 504
3 362 504 363
3 363 504 505
3 363 505 364
3 364 505 506
3 364 506 365
3 365 506 507
3 365 507 366
3 366 507 367
3 367 507 508
3 367 508 368
3 368 508 509
3 368 509 369
3 369 509 510
3 369 510 370
3 370 510 511
3 370 511 371
3 371 511 512
3 371 512 372
3 372 512 513
3 372 513 514
3 372 514 373
3 373 514 515
3 373 515 374
3 374 515 516
3 374 516 375
3 375 516 517
3 375 517 376
3 376 517 518
3 376 518 519
3 376 519 377
3 377 519 520
3 377 520 521
3 377 521 378
3 378 521 522
3 378 522 379
3 379 522 523
3 379 523 380
3 380 523 524
3 380 524 381
3 381 524 525
3 381 525 382
3 382 525 526
3 382 526 383
3 383 526 527
3 383 527 384
3 384 527 528
3 384 528 385
3 385 528 529
3 385 529 530
3 385 530 386
3 386 530 531
3 386 531 532
3 386 532 387
3 387 532 533
3 387 533 534
3 387 534 388
3 388 534 535
3 388 535 389
3 389 535 536
3 389 536 390
3 390 536 537
3 390 537 391
3 391 537 538
3 391 538 392
3 392 538 539
3 392 539 393
3 393 539 540
3 393 540 394
3 394 540 541
3 394 541 395
3 395 541 542
3 395 542 396
3 396 542 543
3 396 543 397
3 397 543 544
3 397 544 410
3 397 410 398
3 398 410 411
3 398 411 412
3 398 412 399
3 399 412 413
3 399 413 414
3 399 414 400
3 400 414 415
3 400 415 401
3 401 415 416
3 401 416 402
3 402 416 417
3 402 417 403
3 403 417 418
3 403 418 404
3 404 418 419
3 404 419 405
3 405 419 420
3 405 420 406
3 406 420 421
3 406 421 407
3 407 421 422
3 407 422 408
3 408 422 423
3 408 423 409
3 409 423 424
3 409 424 287
3 287 424 425
3 287 425 288
3 288 425 426
3 288 426 289
3 289 426 427
3 289 427 290
3 290 427 428
3 290 428 291
3 291 428 429
3 291 429 292
3 292 429 430
3 292 430 293
3 293 430 431
3 293 431 432
3 293 432 294
3 294 432 433
3 294 433 295
3 295 433 434
3 295 434 296
3 296 434 435
3 296 435 297
3 297 435 436
3 297 436 298
3 298 436 437
3 298 437 299
3 299 437 438
3 299 438 300
3 300 438 439
3 300 439 301
3 301 439 440
3 301 440 302
3 302 440 441
3 302 441 303
3 303 441 442
3 303 442 304
3 304 442 443
3 304 443 305
3 305 443 444
3 305 444 306
3 306 444 445
3 306 445 307
3 307 445 446
3 307 446 308
3 308 446 447
3 308 447 309
3 309 447 448
3 309 448 310
3 310 448 449
3 310 449 311
3 311 449 450
3 311 450 312
3 312 450 451
3 312 451 452
3 312 452 313
3 313 452 453
3 313 453 314
3 314 453 454
3 314 454 315
3 315 454 455
3 315 455 316
3 316 455 456
3 316 456 457
3 316 457 317
3 317 457 458
3 317 458 318
3 318 458 459
3 318 459 319
3 319 459 460
3 319 460 320
3 320 460 461
3 320 461 321
3 321 461 462
3 321 462 322
3 322 462 463
3 436 575 576
3 436 576 437
3 437 576 577
3 437 577 438
3 438 577 578
3 438 578 439
3 439 578 579
3 439 579 440
3 440 579 580
3 440 580 441
3 441 580 581
3 441 581 442
3 442 581 582
3 442 582 443
3 443 582 583
3 443 583 444
3 444 583 584
3 444 584 445
3 445 584 585
3 445 585 446
3 446 585 586
3 446 586 587
3 446 587 447
3 447 587 588
3 447 588 448
3 448 588 589
3 448 589 449
3 449 589 590
3 449 590 450
3 450 590 591
3 450 591 451
3 451 591 592
3 451 592 452
3 452 592 593
3 452 593 453
3 453 593 594
3 453 594 454
3 454 594 455
3 455 594 595
3 455 595 456
3 456 595 457
3 457 595 458
3 458 595 596
3 458 596 459
3 459 596 460
3 460 596 597
3 460 597 461
3 461 597 598
3 461 598 462
3 462 598 599
3 462 599 463
3 463 599 600
3 463 600 464
3 464 600 601
3 464 601 465
3 465 601 602
3 465 602 466
3 466 602 603
3 466 603 467
3 467 603 604
3 467 604 468
3 468 604 605
3 468 605 469
3 469 605 606
3 469 606 470
3 470 606 607
3 470 607 471
3 471 607 608
3 471 608 472
3 472 608 609
3 472 609 473
3 473 609 610
3 473 610 474
3 474 610 611
3 474 611 475
3 475 611 612
3 475 612 476
3 476 612 613
3 476 613 477
3 477 613 614
3 477 614 478
3 478 614 479
3 479 614 615
3 479 615 480
3 480 615 616
3 480 616 481
3 481 616 617
3 481 617 482
3 482 617 483
3 483 617 618
3 483 618 484
3 484 618 619
3 484 619 485
3 485 619 620
3 485 620 486
3 486 620 621
3 486 621 487
3 487 621 622
3 487 622 488
3 488 622 623
3 488 623 489
3 489 623 624
3 489 624 490
3 490 624 625
3 490 625 491
3 491 625 626
3 491 626 492
3 492 626 627
3 492 627 493
3 493 627 628
3 493 628 494
3 494 628 629
3 494 629 495
3 495 629 630
3 495 630 496
3 496 630 631
3 496 631 497
3 497 631 498
3 498 631 632
3 498 632 499
3 499 632 633
3 499 633 500
3 500 633 634
3 500 634 501
3 501 634 635
3 501 635 502
3 502 635 636
3 502 636 503
3 503 636 637
3 503 637 504
3 504 637 638
3 504 638 505
3 505 638 639
3 505 639 506
3 506 639 640
3 506 640 507
3 507 640 641
3 507 641 508
3 508 641 642
3 508 642 509
3 509 642 643
3 509 643 510
3 510 643 511
3 511 643 644
3 511 644 512
3 512 644 645
3 512 645 513
3 513 645 646
3 513 646 514
3 514 646 647
3 514 647 515
3 515 647 648
3 515 648 516
3 516 648 649
3 516 649 517
3 517 649 650
3 517 650 518
3 518 650 651
3 518 651 519
3 519 651 652
3 519 652 520
3 520 652 653
3 520 653 521
3 521 653 654
3 521 654 522
3 522 654 655
3 522 655 523
3 523 655 656
3 523 656 524
3 524 656 657
3 524 657 525
3 525 657 658
3 525 658 526
3 526 658 659
3 526 659 527
3 527 659 660
3 527 660 661
3 527 661 528
3 528 661 662
3 528 662 529
3 529 662 663
3 529 663 664
3 529 664 530
3 530 664 665
3 530 665 531
3 531 665 666
3 531 666 532
3 532 666 667
3 532 667 533
3 533 667 534
3 534 667 668
3 534 668 535
3 535 668 669
3 535 669 536
3 536 669 670
3 536 670 537
3 537 670 545
3 537 545 538
3 538 545 546
3 538 546 539
3 539 546 547
3 539 547 540
3 540 547 548
3 540 548 541
3 541 548 549
3 541 549 542
3 542 549 550
3 542 550 543
3 543 550 551
3 543 551 544
3 544 551 410
3 410 551 552
3 410 552 411
3 411 552 412
3 412 552 553
3 412 553 413
3 413 553 554
3 413 554 414
3 414 554 555
3 414 555 415
3 415 555 556
3 415 556 416
3 416 556 557
3 416 557 417
3 417 557 558
3 417 558 418
3 418 558 559
3 418 559 419
3 419 559 560
3 419 560 420
3 420 560 561
3 420 561 421
3 421 561 562
3 421 562 422
3 422 562 563
3 422 563 423
3 423 563 564
3 423 564 424
3 424 564 565
3 424 565 425
3 425 565 566
3 425 566 426
3 426 566 427
3 427 566 567
3 427 567 428
3 428 567 568
3 428 568 429
3 429 568 569
3 429 569 430
3 430 569 570
3 430 570 431
3 431 570 571
3 431 571 432
3 432 571 572
3 432 572 433
3 433 572 573
3 433 573 434
3 434 573 574
3 434 574 435
3 435 574 575
3 435 575 436
3 650 788 651
3 651 788 789
3 651 789 652
3 652 789 790
3 652 790 653
3 653 790 791
3 653 791 654
3 654 791 792
3 654 792 655
3 655 792 793
3 655 793 656
3 656 793 794
3 656 794 657
3 657 794 795
3 657 795 658
3 658 795 796
3 658 796 659
3 659 796 797
3 659 797 660
3 660 797 798
3 660 798 799
3 660 799 800
3 660 800 661
3 661 800 801
3 661 801 802
3 661 802 662
3 662 802 803
3 662 803 663
3 663 803 804
3 663 804 805
3 663 805 664
3 664 805 671
3 664 671 665
3 665 671 672
3 665 672 666
3 666 672 673
3 666 673 667
3 667 673 674
3 667 674 668
3 668 674 675
3 668 675 669
3 669 675 676
3 669 676 670
3 670 676 677
3 670 677 545
3 545 677 678
3 545 678 546
3 546 678 679
3 546 679 547
3 547 679 680
3 547 680 548
3 548 680 681
3 548 681 549
3 549 681 682
3 549 682 550
3 550 682 683
3 550 683 551
3 551 683 684
3 551 684 552
3 552 684 685
3 552 685 553
3 553 685 686
3 553 686 554
3 554 686 687
3 554 687 555
3 555 687 688
3 555 688 556
3 556 688 689
3 556 689 557
3 557 689 690
3 557 690 558
3 558 690 691
3 558 691 559
3 559 691 692
3 559 692 560
3 560 692 693
3 560 693 561
3 561 693 694
3 561 694 562
3 562 694 695
3 562 695 563
3 563 695 696
3 563 696 697
3 563 697 564
3 564 697 698
3 564 698 565
3 565 698 699
3 565 699 566
3 566 699 700
3 566 700 567
3 567 700 701
3 567 701 568
3 568 701 702
3 568 702 569
3 569 702 703
3 569 703 570
3 570 703 704
3 570 704 571
3 571 704 705
3 571 705 572
3 572 705 706
3 572 706 573
3 573 706 707
3 573 707 574
3 574 707 708
3 574 708 575
3 575 708 709
3 575 709 576
3 576 709 710
3 576 710 711
3 576 711 577
3 577 711 712
3 577 712 578
3 578 712 713
3 578 713 579
3 579 713 714
3 579 714 715
3 579 715 580
3 580 715 716
3 580 716 581
3 581 716 717
3 581 717 582
3 582 717 718
3 582 718 583
3 583 718 719
3 583 719 584
3 584 719 720
3 584 720 585
3 585 720 721
3 585 721 586
3 586 721 722
3 586 722 587
3 587 722 723
3 587 723 588
3 588 723 724
3 588 724 589
3 589 724 725
3 589 725 590
3 590 725 726
3 590 726 591
3 591 726 727
3 591 727 592
3 592 727 728
3 592 728 593
3 593 728 729
3 593 729 594
3 594 729 730
3 594 730 595
3 595 730 731
3 595 731 596
3 596 731 732
3 596 732 733
3 596 733 597
3 597 733 734
3 597 734 598
3 598 734 735
3 598 735 599
3 599 735 736
3 599 736 737
3 599 737 600
3 600 737 738
3 600 738 601
3 601 738 739
3 601 739 602
3 602 739 740
3 602 740 741
3 602 741 603
3 603 741 742
3 603 742 604
3 604 742 743
3 604 743 605
3 605 743 744
3 605 744 606
3 606 744 745
3 606 745 607
3 607 745 746
3 607 746 608
3 608 746 747
3 608 747 609
3 609 747 748
3 609 748 610
3 610 748 749
3 610 749 611
3 611 749 750
3 611 750 612
3 612 750 751
3 612 751 613
3 613 751 752
3 613 752 614
3 614 752 753
3 614 753 615
3 615 753 754
3 615 754 616
3 616 754 755
3 616 755 617
3 617 755 756
3 617 756 618
3 618 756 757
3 618 757 758
3 618 758 619
3 619 758 759
3 619 759 620
3 620 759 760
3 620 760 621
3 621 760 761
3 621 761 622
3 622 761 762
3 622 762 623
3 623 762 763
3 623 763 624
3 624 763 764
3 624 764 625
3 625 764 765
3 625 765 626
3 626 765 766
3 626 766 627
3 627 766 767
3 627 767 628
3 628 767 768
3 628 768 629
3 629 768 769
3 629 769 630
3 630 769 770
3 630 770 631
3 631 770 771
3 631 771 632
3 632 771 633
3 633 771 772
3 633 772 634
3 634 772 773
3 634 773 635
3 635 773 774
3 635 774 636
3 636 774 775
3 636 775 637
3 637 775 776
3 637 776 638
3 638 776 777
3 638 777 639
3 639 777 778
3 639 778 640
3 640 778 641
3 641 778 779
3 641 779 642
3 642 779 780
3 642 780 643
3 643 780 781
3 643 781 644
3 644 781 782
3 644 782 645
3 645 782 783
3 645 783 646
3 646 783 784
3 646 784 647
3 647 784 785
3 647 785 648
3 648 785 786
3 648 786 649
3 649 786 787
3 649 787 650
3 650 787 788
