ply
format ascii 1.0
comment created by MatGeom for Matlab
element vertex 652
property float x
property float y
property float z
element face 1239
property list uchar int vertex_index
end_header
193.321 256.546 200
193.657 258.532 200
193.433 260.7 200
192.65 263.05 200
191.867 265.4 200
191.005 267.711 200
190.015 269.957 200
188.898 272.139 200
187.654 274.257 200
186.282 276.311 200
184.716 278.077 200
182.94 279.46 200
180.952 280.461 200
178.754 281.08 200
176.345 281.317 200
173.871 281.435 200
171.397 281.553 200
168.922 281.67 200
166.553 281.683 200
164.699 281.178 200
163.362 280.153 200
162.541 278.611 200
162.237 276.55 200
162.345 274.075 200
162.452 271.6 200
162.56 269.125 200
162.667 266.65 200
162.775 264.176 200
163.228 261.887 200
164.061 259.803 200
165.274 257.924 200
166.868 256.25 200
168.841 254.781 200
170.849 253.331 200
172.858 251.881 200
174.866 250.43 200
176.874 248.98 200
178.883 248.076 200
180.895 247.75 200
182.907 248.002 200
184.921 248.833 200
186.937 250.241 200
188.953 251.681 200
190.969 253.12 200
192.424 254.742 200
175.579 246.722 220
176.3 248.729 220
176.548 250.977 220
176.211 253.432 220
175.685 255.831 220
174.969 258.173 220
174.063 260.458 220
172.967 262.687 220
171.791 264.891 220
170.615 267.096 220
169.235 268.939 220
167.591 270.317 220
165.682 271.228 220
163.51 271.674 220
161.074 271.654 220
158.578 271.529 220
156.083 271.404 220
153.587 271.279 220
151.314 270.827 220
149.333 269.945 220
147.645 268.633 220
146.249 266.891 220
145.145 264.719 220
144.322 262.406 220
143.864 260.074 220
143.771 257.723 220
144.042 255.353 220
144.679 252.963 220
145.485 250.606 220
146.554 248.452 220
147.885 246.502 220
149.479 244.756 220
151.335 243.214 220
153.436 241.862 220
155.538 240.511 220
157.672 239.269 220
159.813 238.554 220
161.963 238.366 220
164.121 238.705 220
166.287 239.572 220
168.43 240.858 220
170.572 242.143 220
172.715 243.429 220
174.384 244.955 220
156.704 237.005 240
158.897 237.831 240
160.991 238.993 240
162.652 240.684 240
163.976 242.57 240
164.963 244.652 240
165.519 246.93 240
165.614 249.403 240
165.582 251.878 240
165.24 254.238 240
164.421 256.38 240
163.219 258.304 240
161.664 260.009 240
159.756 261.496 240
157.681 262.88 240
155.605 264.263 240
153.564 265.445 240
151.639 265.95 240
149.83 265.78 240
148.137 264.934 240
146.606 263.388 240
145.319 261.289 240
144.194 259.109 240
143.231 256.848 240
142.431 254.507 240
141.745 252.108 240
141.131 249.703 240
140.829 247.31 240
140.84 244.93 240
141.163 242.562 240
142 240.477 240
143.4 238.844 240
145.123 237.642 240
147.168 236.872 240
149.536 236.533 240
152.024 236.355 240
154.413 236.513 240
147.264 234.49 260
148.924 235.724 260
150.203 237.497 260
150.686 239.749 260
150.598 241.995 260
150.006 244.199 260
148.963 246.338 260
147.456 248.258 260
145.757 249.601 260
143.869 250.368 260
142.041 250.307 260
140.344 249.349 260
138.92 247.652 260
138.123 245.629 260
137.953 243.28 260
138.159 240.858 260
138.734 238.505 260
139.885 236.573 260
141.393 235.064 260
143.258 233.978 260
145.26 233.8 260
132.776 219.656 300
135.079 220.565 300
137.086 221.722 300
138.241 223.2 300
138.621 224.782 300
138.223 226.467 300
137.049 228.254 300
135.321 230.116 300
133.593 231.977 300
131.865 233.838 300
130.012 235.415 300
127.998 236.62 300
125.821 237.452 300
123.481 237.912 300
121.2 237.78 300
119.388 237.052 300
118.084 235.816 300
117.288 234.072 300
117.216 231.875 300
117.676 229.452 300
118.379 227.091 300
119.325 224.793 300
120.515 222.556 300
121.982 220.801 300
123.711 219.543 300
125.703 218.781 300
127.957 218.516 300
130.398 218.966 300
121.728 209.705 340
122.501 211.703 340
122.479 213.77 340
121.66 215.906 340
120.47 217.877 340
118.908 219.683 340
117.049 221.356 340
115.106 222.624 340
113.06 223.399 340
111.05 223.581 340
109.412 222.929 340
108.146 221.442 340
107.535 219.572 340
107.624 217.413 340
108.285 215.073 340
109.237 212.826 340
110.48 210.673 340
111.814 208.566 340
113.318 207.018 340
115.008 206.174 340
116.832 206.002 340
118.789 206.502 340
120.455 207.91 340
115.247 208.583 360
114.476 210.524 360
113.093 212.106 360
111.058 212.988 360
108.988 213.341 360
107.079 212.905 360
105.329 211.68 360
104.133 209.944 360
103.756 208.075 360
104.161 206.041 360
105.155 204.103 360
106.74 202.26 360
108.532 200.527 360
110.159 199.627 360
111.622 199.56 360
112.919 200.326 360
114.052 201.925 360
115.035 204.283 360
115.433 206.503 360
106.75 198.717 400
108.898 199.648 400
110.14 200.847 400
110.475 202.312 400
109.988 203.805 400
108.677 205.326 400
106.669 206.87 400
104.661 208.414 400
102.683 209.506 400
100.748 209.931 400
98.8561 209.689 400
97.1438 208.731 400
95.889 206.962 400
95.0623 204.832 400
94.6497 202.558 400
94.9898 200.549 400
96.0568 198.988 400
97.5727 197.973 400
99.5376 197.503 400
101.951 197.579 400
104.392 198.029 400
102.718 199.513 440
103.672 200.881 440
103.681 202.52 440
102.745 204.43 440
101.291 206.106 440
99.2481 207.298 440
96.9306 208.13 440
94.8963 208.212 440
93.1551 207.532 440
91.7698 206.106 440
91.2518 204.299 440
91.6065 202.131 440
92.6095 200.41 440
94.2642 199.18 440
96.5077 198.425 440
98.9009 198.032 440
101.017 198.504 440
99.4016 197.783 460
101.103 199.353 460
101.936 201.086 460
101.899 202.983 460
101.188 204.777 460
99.744 206.376 460
97.6673 207.795 460
95.6546 208.82 460
93.8853 209.036 460
92.3637 208.449 460
91.1495 207.151 460
90.3709 205.163 460
90.2115 202.833 460
90.4919 200.575 460
91.212 198.391 460
92.3484 196.927 460
93.9822 196.087 460
95.8021 195.819 460
97.6086 196.385 460
90.6191 192.04 500
91.4928 193.145 500
91.6401 194.853 500
91.0609 197.163 500
90.2155 199.396 500
89.1039 201.551 500
87.7731 203.642 500
86.3081 205.602 500
84.6969 207.419 500
82.9419 209.087 500
81.4037 209.843 500
80.0824 209.688 500
79.1121 208.753 500
78.5049 207.049 500
78.5166 204.63 500
78.7993 202.261 500
79.353 199.941 500
80.2601 197.761 500
81.6769 195.891 500
83.3449 194.282 500
85.2516 192.932 500
87.3969 191.841 500
89.2381 191.601 500
92.0683 197.863 540
91.6144 199.696 540
90.5167 201.483 540
88.6335 202.883 540
86.606 203.935 540
84.6932 204.219 540
82.9084 203.715 540
81.3809 202.442 540
80.6917 200.815 540
80.8434 198.839 540
81.5771 196.934 540
82.8794 195.121 540
84.6179 193.423 540
86.3036 192.469 540
87.9366 192.256 540
89.5168 192.787 540
91.0443 194.059 540
91.8782 195.984 540
88.4545 192.955 560
90.1273 194.276 560
91.0435 195.95 560
91.2029 197.974 560
90.7875 200.033 560
89.6512 201.81 560
87.9569 203.114 560
86.0336 203.926 560
84.1178 203.936 560
82.2698 203.067 560
80.6356 201.632 560
79.6464 199.842 560
79.4263 197.708 560
79.7386 195.538 560
80.7053 193.82 560
82.361 192.629 560
84.3573 191.935 560
86.3885 192.044 560
84.9791 197.033 600
86.5425 197.218 600
87.5999 198.179 600
88.0011 199.858 600
87.5937 201.952 600
86.632 204.242 600
85.3862 206.273 600
83.7211 207.658 600
81.7872 208.455 600
79.9163 208.53 600
78.4148 207.682 600
77.342 206.082 600
77.0825 204.278 600
77.7481 202.343 600
79.0815 200.445 600
80.7762 198.783 600
82.9099 197.626 600
96.161 206.754 660
95.5859 208.719 660
94.3977 210.602 660
92.5965 212.403 660
90.7954 214.205 660
89.0389 215.73 660
87.4149 216.44 660
85.9232 216.334 660
84.5639 215.412 660
83.3371 213.674 660
82.5935 211.379 660
82.2668 209.067 660
82.3573 206.738 660
82.8647 204.391 660
84.0176 202.408 660
85.5091 200.953 660
87.3177 200.028 660
89.4016 199.696 660
91.5491 200.279 660
93.5317 201.396 660
95.2607 202.899 660
96.1232 204.706 660
97.0614 210.054 700
98.0874 211.562 700
98.3165 213.382 700
97.7487 215.512 700
96.655 217.599 700
95.1611 219.653 700
93.7545 220.932 700
92.4465 221.332 700
91.2372 220.855 700
90.4864 219.503 700
90.2407 217.275 700
90.4129 214.948 700
90.9936 212.629 700
92.2726 210.876 700
93.8899 209.687 700
95.5281 209.416 700
103.312 218.886 740
102.895 220.89 740
101.915 222.856 740
100.372 224.785 740
98.6994 226.272 740
97.0441 227.047 740
95.5616 226.962 740
94.2519 226.017 740
93.3989 224.284 740
93.3338 222.258 740
93.9089 220.208 740
94.969 218.284 740
96.5973 216.687 740
98.4847 215.645 740
100.277 215.375 740
101.974 215.878 740
103.014 217.115 740
108.029 220.59 760
108.801 222.595 760
108.768 224.612 760
107.931 226.642 760
106.612 228.488 760
104.812 230.15 760
102.825 231.466 760
101.074 231.982 760
99.5597 231.696 760
98.4722 230.6 760
97.8926 228.688 760
97.8208 226.236 760
98.0117 223.768 760
98.5197 221.312 760
99.2261 218.892 760
100.217 217.221 760
101.504 216.353 760
103.097 216.287 760
104.94 217 760
106.64 218.67 760
115.52 221.187 800
116.253 222.797 800
116.089 224.6 800
115.027 226.596 800
113.561 228.39 800
111.758 229.509 800
109.905 229.844 800
108.438 229.409 800
107.486 228.178 800
107.047 226.151 800
107.05 223.799 800
107.676 221.745 800
108.813 220.267 800
110.334 219.392 800
112.239 219.12 800
114.039 219.848 800
121.569 224.294 810
123.399 225.031 810
124.265 226.053 810
124.167 227.36 810
123.247 228.521 810
121.507 229.535 810
119.199 230.6 810
116.91 231.379 810
114.722 231.586 810
112.753 231.143 810
111.057 230.015 810
110.024 228.429 810
109.938 226.843 810
110.715 225.545 810
112.238 224.612 810
114.453 224.078 810
116.968 223.719 810
119.34 223.791 810
120 224.682 820
122.041 224.995 820
123.661 226.094 820
124.793 227.943 820
125.092 229.806 820
124.56 231.682 820
123.258 233.538 820
121.557 234.718 820
119.53 235.112 820
117.61 234.854 820
116.101 233.797 820
115.003 231.94 820
114.663 229.942 820
115.139 227.978 820
116.339 226.094 820
117.959 224.995 820
124.314 231.926 840
125.627 233.387 840
126.067 235.048 840
125.635 236.908 840
124.522 238.351 840
122.703 239.138 840
120.612 239.345 840
118.908 238.76 840
117.646 237.356 840
116.86 235.439 840
116.702 233.425 840
117.48 231.758 840
118.743 230.682 840
120.438 230.226 840
122.336 230.7 840
128.865 235.344 850
130.23 236.88 850
130.779 238.582 850
130.335 240.335 850
129.277 241.692 850
127.603 242.652 850
125.35 243.104 850
123.057 242.997 850
120.903 242.446 850
119.24 241.305 850
118.07 239.572 850
117.46 237.469 850
117.703 235.758 850
118.801 234.441 850
120.402 233.662 850
122.502 233.423 850
125.001 233.615 850
127.122 234.256 850
133.52 238.142 860
134.04 239.618 860
133.617 241.197 860
132.275 242.679 860
130.546 243.332 860
128.437 243.163 860
126.498 242.395 860
125.011 240.895 860
123.953 238.865 860
123.722 237.217 860
124.369 236.014 860
125.789 235.306 860
127.699 235.227 860
130.099 235.775 860
132.059 236.77 860
143.48 241.675 880
142.895 242.898 880
141.47 244.002 880
139.215 244.575 880
136.969 244.724 880
134.953 244.382 880
133.629 243.406 880
133 241.807 880
133.054 239.996 880
133.817 238.096 880
135.192 236.796 880
136.713 236.239 880
138.38 236.426 880
140.193 237.355 880
142.129 238.903 880
143.224 240.343 880
141.027 240.152 890
143.421 240.288 890
145.494 241.038 890
146.905 242.427 890
147.413 243.793 890
146.938 244.854 890
145.48 245.608 890
143.383 245.798 890
141.033 245.286 890
138.663 244.35 890
137.226 243.333 890
136.763 242.239 890
137.26 241.097 890
138.681 240.401 890
152.605 242.377 900
154.512 243.19 900
155.53 244.388 900
155.658 245.969 900
155.027 247.476 900
153.639 248.907 900
151.547 249.999 900
149.424 250.598 900
147.27 250.704 900
145.241 250.173 900
143.439 248.911 900
142.185 247.337 900
141.851 245.873 900
142.437 244.518 900
143.788 243.416 900
145.802 242.661 900
148.201 242.107 900
150.469 242.013 900
151.196 240.737 910
153.325 240.523 910
155.145 241.036 910
156.655 242.274 910
157.789 243.993 910
158.548 246.193 910
158.811 248.423 910
158.493 250.356 910
157.595 251.993 910
156.117 253.333 910
154.078 254.259 910
151.876 254.56 910
149.754 254.36 910
147.742 253.644 910
146.19 252.249 910
145.08 250.293 910
144.459 248.222 910
144.65 246.222 910
145.619 244.308 910
147.019 242.644 910
148.915 241.475 910
165.439 250.317 920
165.526 251.513 920
164.676 252.641 920
162.88 253.641 920
160.433 254.222 920
157.96 254.642 920
155.565 254.782 920
153.58 254.258 920
152.016 253.132 920
151.039 251.533 920
150.832 249.499 920
151.322 247.256 920
152.339 245.742 920
153.881 244.959 920
155.799 244.875 920
157.909 245.455 920
160.182 246.591 920
162.455 247.727 920
164.415 249.056 920
174.468 251.137 930
176.401 252.274 930
177.604 253.764 930
177.869 255.313 930
177.332 256.407 930
175.99 257.048 930
173.846 257.235 930
171.452 256.993 930
169.047 256.54 930
166.735 255.866 930
164.516 254.971 930
162.39 253.855 930
160.622 252.606 930
159.802 251.511 930
159.87 250.711 930
160.825 250.208 930
162.669 250 930
165.135 250 930
167.601 250 930
170.067 250 930
172.356 250.379 930
183.51 255.88 940
185.478 257.169 940
187.283 258.752 940
188.335 260.468 940
188.586 261.966 940
188.031 263.216 940
186.669 263.965 940
184.506 264.181 940
182.131 264.024 940
179.756 263.552 940
177.583 262.666 940
175.768 261.423 940
174.305 259.854 940
173.228 257.954 940
173.056 256.225 940
173.652 254.864 940
174.861 254.069 940
176.683 253.84 940
179.083 254.18 940
181.378 254.883 940
3 14 60 61
3 14 61 15
3 15 61 16
3 16 61 62
3 16 62 63
3 16 63 17
3 17 63 64
3 17 64 18
3 18 64 19
3 19 64 65
3 19 65 20
3 20 65 21
3 21 65 66
3 21 66 22
3 22 66 67
3 22 67 23
3 23 67 68
3 23 68 24
3 24 68 69
3 24 69 25
3 25 69 70
3 25 70 26
3 26 70 71
3 26 71 27
3 27 71 72
3 27 72 28
3 28 72 73
3 28 73 29
3 29 73 74
3 29 74 30
3 30 74 75
3 30 75 31
3 31 75 76
3 31 76 32
3 32 76 77
3 32 77 33
3 33 77 78
3 33 78 34
3 34 78 79
3 34 79 35
3 35 79 80
3 35 80 36
3 36 80 81
3 36 81 37
3 37 81 82
3 37 82 38
3 38 82 83
3 38 83 39
3 39 83 84
3 39 84 40
3 40 84 85
3 40 85 41
3 41 85 86
3 41 86 42
3 42 86 87
3 42 87 43
3 43 87 88
3 43 88 44
3 44 88 45
3 44 45 0
3 0 45 46
3 0 46 1
3 1 46 47
3 1 47 2
3 2 47 48
3 2 48 3
3 3 48 49
3 3 49 4
3 4 49 50
3 4 50 5
3 5 50 51
3 5 51 6
3 6 51 52
3 6 52 7
3 7 52 53
3 7 53 8
3 8 53 54
3 8 54 9
3 9 54 55
3 9 55 10
3 10 55 56
3 10 56 11
3 11 56 57
3 11 57 58
3 11 58 12
3 12 58 59
3 12 59 13
3 13 59 60
3 13 60 14
3 75 118 76
3 76 118 119
3 76 119 120
3 76 120 77
3 77 120 121
3 77 121 78
3 78 121 122
3 78 122 79
3 79 122 123
3 79 123 80
3 80 123 124
3 80 124 81
3 81 124 125
3 81 125 82
3 82 125 89
3 82 89 83
3 83 89 84
3 84 89 90
3 84 90 85
3 85 90 91
3 85 91 86
3 86 91 92
3 86 92 87
3 87 92 93
3 87 93 88
3 88 93 94
3 88 94 45
3 45 94 46
3 46 94 95
3 46 95 47
3 47 95 48
3 48 95 96
3 48 96 49
3 49 96 97
3 49 97 50
3 50 97 98
3 50 98 51
3 51 98 99
3 51 99 52
3 52 99 100
3 52 100 53
3 53 100 101
3 53 101 54
3 54 101 102
3 54 102 55
3 55 102 56
3 56 102 103
3 56 103 57
3 57 103 104
3 57 104 58
3 58 104 59
3 59 104 105
3 59 105 60
3 60 105 106
3 60 106 107
3 60 107 61
3 61 107 108
3 61 108 62
3 62 108 109
3 62 109 63
3 63 109 64
3 64 109 110
3 64 110 65
3 65 110 66
3 66 110 111
3 66 111 67
3 67 111 112
3 67 112 68
3 68 112 69
3 69 112 113
3 69 113 70
3 70 113 114
3 70 114 71
3 71 114 115
3 71 115 72
3 72 115 116
3 72 116 73
3 73 116 117
3 73 117 74
3 74 117 75
3 75 117 118
3 111 138 112
3 112 138 139
3 112 139 113
3 113 139 140
3 113 140 114
3 114 140 141
3 114 141 115
3 115 141 116
3 116 141 142
3 116 142 117
3 117 142 143
3 117 143 118
3 118 143 119
3 119 143 120
3 120 143 144
3 120 144 121
3 121 144 122
3 122 144 123
3 123 144 145
3 123 145 124
3 124 145 146
3 124 146 125
3 125 146 89
3 89 146 126
3 89 126 90
3 90 126 91
3 91 126 127
3 91 127 92
3 92 127 93
3 93 127 128
3 93 128 94
3 94 128 95
3 95 128 129
3 95 129 96
3 96 129 130
3 96 130 97
3 97 130 98
3 98 130 131
3 98 131 99
3 99 131 132
3 99 132 100
3 100 132 101
3 101 132 133
3 101 133 102
3 102 133 103
3 103 133 134
3 103 134 104
3 104 134 135
3 104 135 105
3 105 135 136
3 105 136 106
3 106 136 107
3 107 136 108
3 108 136 109
3 109 136 137
3 109 137 110
3 110 137 111
3 111 137 138
3 135 158 159
3 135 159 136
3 136 159 160
3 136 160 137
3 137 160 161
3 137 161 138
3 138 161 162
3 138 162 163
3 138 163 164
3 138 164 139
3 139 164 165
3 139 165 166
3 139 166 140
3 140 166 167
3 140 167 141
3 141 167 168
3 141 168 142
3 142 168 169
3 142 169 143
3 143 169 170
3 143 170 144
3 144 170 171
3 144 171 172
3 144 172 145
3 145 172 173
3 145 173 146
3 146 173 174
3 146 174 126
3 126 174 147
3 126 147 127
3 127 147 148
3 127 148 128
3 128 148 149
3 128 149 150
3 128 150 129
3 129 150 151
3 129 151 152
3 129 152 153
3 129 153 130
3 130 153 154
3 130 154 131
3 131 154 155
3 131 155 132
3 132 155 156
3 132 156 133
3 133 156 157
3 133 157 134
3 134 157 158
3 134 158 135
3 158 182 183
3 158 183 159
3 159 183 184
3 159 184 160
3 160 184 185
3 160 185 161
3 161 185 186
3 161 186 162
3 162 186 163
3 163 186 187
3 163 187 164
3 164 187 165
3 165 187 188
3 165 188 166
3 166 188 189
3 166 189 167
3 167 189 190
3 167 190 168
3 168 190 169
3 169 190 191
3 169 191 170
3 170 191 192
3 170 192 171
3 171 192 193
3 171 193 172
3 172 193 194
3 172 194 173
3 173 194 195
3 173 195 174
3 174 195 196
3 174 196 147
3 147 196 197
3 147 197 148
3 148 197 175
3 148 175 149
3 149 175 150
3 150 175 176
3 150 176 151
3 151 176 152
3 152 176 177
3 152 177 153
3 153 177 178
3 153 178 154
3 154 178 179
3 154 179 155
3 155 179 180
3 155 180 156
3 156 180 181
3 156 181 157
3 157 181 182
3 157 182 158
3 181 201 182
3 182 201 202
3 182 202 183
3 183 202 203
3 183 203 184
3 184 203 185
3 185 203 204
3 185 204 186
3 186 204 187
3 187 204 205
3 187 205 188
3 188 205 206
3 188 206 189
3 189 206 207
3 189 207 190
3 190 207 208
3 190 208 191
3 191 208 209
3 191 209 192
3 192 209 210
3 192 210 193
3 193 210 211
3 193 211 194
3 194 211 195
3 195 211 212
3 195 212 196
3 196 212 213
3 196 213 197
3 197 213 214
3 197 214 175
3 175 214 215
3 175 215 176
3 176 215 177
3 177 215 216
3 177 216 178
3 178 216 198
3 178 198 179
3 179 198 199
3 179 199 180
3 180 199 200
3 180 200 181
3 181 200 201
3 210 236 211
3 211 236 237
3 211 237 212
3 212 237 213
3 213 237 217
3 213 217 214
3 214 217 218
3 214 218 215
3 215 218 219
3 215 219 220
3 215 220 216
3 216 220 221
3 216 221 222
3 216 222 198
3 198 222 223
3 198 223 199
3 199 223 200
3 200 223 224
3 200 224 201
3 201 224 225
3 201 225 202
3 202 225 226
3 202 226 203
3 203 226 227
3 203 227 204
3 204 227 228
3 204 228 205
3 205 228 229
3 205 229 206
3 206 229 230
3 206 230 207
3 207 230 231
3 207 231 232
3 207 232 208
3 208 232 233
3 208 233 234
3 208 234 209
3 209 234 235
3 209 235 210
3 210 235 236
3 223 242 224
3 224 242 243
3 224 243 225
3 225 243 244
3 225 244 226
3 226 244 245
3 226 245 227
3 227 245 246
3 227 246 228
3 228 246 247
3 228 247 229
3 229 247 248
3 229 248 230
3 230 248 249
3 230 249 231
3 231 249 232
3 232 249 250
3 232 250 233
3 233 250 234
3 234 250 251
3 234 251 235
3 235 251 252
3 235 252 236
3 236 252 253
3 236 253 237
3 237 253 254
3 237 254 217
3 217 254 238
3 217 238 218
3 218 238 239
3 218 239 219
3 219 239 220
3 220 239 240
3 220 240 221
3 221 240 222
3 222 240 241
3 222 241 223
3 223 241 242
3 254 255 256
3 254 256 238
3 238 256 239
3 239 256 257
3 239 257 240
3 240 257 258
3 240 258 241
3 241 258 259
3 241 259 242
3 242 259 260
3 242 260 243
3 243 260 261
3 243 261 244
3 244 261 262
3 244 262 263
3 244 263 245
3 245 263 264
3 245 264 246
3 246 264 265
3 246 265 247
3 247 265 266
3 247 266 248
3 248 266 267
3 248 267 249
3 249 267 268
3 249 268 250
3 250 268 269
3 250 269 251
3 251 269 270
3 251 270 271
3 251 271 252
3 252 271 272
3 252 272 253
3 253 272 273
3 253 273 255
3 253 255 254
3 262 282 263
3 263 282 283
3 263 283 264
3 264 283 284
3 264 284 285
3 264 285 286
3 264 286 287
3 264 287 265
3 265 287 288
3 265 288 266
3 266 288 289
3 266 289 267
3 267 289 290
3 267 290 268
3 268 290 291
3 268 291 269
3 269 291 292
3 269 292 270
3 270 292 271
3 271 292 293
3 271 293 272
3 272 293 294
3 272 294 273
3 273 294 295
3 273 295 296
3 273 296 255
3 255 296 274
3 255 274 275
3 255 275 276
3 255 276 277
3 255 277 256
3 256 277 278
3 256 278 257
3 257 278 258
3 258 278 279
3 258 279 259
3 259 279 280
3 259 280 260
3 260 280 281
3 260 281 261
3 261 281 262
3 262 281 282
3 278 314 297
3 278 297 279
3 279 297 298
3 279 298 299
3 279 299 280
3 280 299 300
3 280 300 281
3 281 300 301
3 281 301 282
3 282 301 302
3 282 302 283
3 283 302 303
3 283 303 284
3 284 303 285
3 285 303 286
3 286 303 287
3 287 303 304
3 287 304 288
3 288 304 305
3 288 305 289
3 289 305 306
3 289 306 290
3 290 306 307
3 290 307 291
3 291 307 308
3 291 308 292
3 292 308 309
3 292 309 293
3 293 309 310
3 293 310 294
3 294 310 311
3 294 311 295
3 295 311 312
3 295 312 296
3 296 312 274
3 274 312 275
3 275 312 276
3 276 312 313
3 276 313 277
3 277 313 314
3 277 314 278
3 314 317 297
3 297 317 318
3 297 318 298
3 298 318 319
3 298 319 299
3 299 319 320
3 299 320 300
3 300 320 321
3 300 321 322
3 300 322 301
3 301 322 323
3 301 323 302
3 302 323 324
3 302 324 303
3 303 324 325
3 303 325 304
3 304 325 305
3 305 325 326
3 305 326 306
3 306 326 327
3 306 327 307
3 307 327 328
3 307 328 308
3 308 328 329
3 308 329 330
3 308 330 309
3 309 330 331
3 309 331 310
3 310 331 332
3 310 332 311
3 311 332 315
3 311 315 312
3 312 315 313
3 313 315 316
3 313 316 314
3 314 316 317
3 326 345 327
3 327 345 346
3 327 346 328
3 328 346 347
3 328 347 329
3 329 347 348
3 329 348 330
3 330 348 331
3 331 348 349
3 331 349 332
3 332 349 333
3 332 333 315
3 315 333 334
3 315 334 335
3 315 335 316
3 316 335 336
3 316 336 317
3 317 336 337
3 317 337 318
3 318 337 338
3 318 338 319
3 319 338 320
3 320 338 339
3 320 339 321
3 321 339 340
3 321 340 322
3 322 340 341
3 322 341 323
3 323 341 342
3 323 342 324
3 324 342 343
3 324 343 325
3 325 343 344
3 325 344 326
3 326 344 345
3 339 353 340
3 340 353 354
3 340 354 341
3 341 354 355
3 341 355 356
3 341 356 342
3 342 356 357
3 342 357 358
3 342 358 343
3 343 358 359
3 343 359 344
3 344 359 360
3 344 360 345
3 345 360 361
3 345 361 346
3 346 361 362
3 346 362 347
3 347 362 363
3 347 363 364
3 347 364 348
3 348 364 365
3 348 365 366
3 348 366 349
3 349 366 367
3 349 367 368
3 349 368 333
3 333 368 369
3 333 369 334
3 334 369 370
3 334 370 335
3 335 370 371
3 335 371 336
3 336 371 350
3 336 350 337
3 337 350 351
3 337 351 338
3 338 351 352
3 338 352 339
3 339 352 353
3 354 377 378
3 354 378 355
3 355 378 379
3 355 379 356
3 356 379 357
3 357 379 380
3 357 380 358
3 358 380 359
3 359 380 381
3 359 381 360
3 360 381 382
3 360 382 361
3 361 382 383
3 361 383 362
3 362 383 384
3 362 384 363
3 363 384 364
3 364 384 385
3 364 385 365
3 365 385 366
3 366 385 386
3 366 386 367
3 367 386 387
3 367 387 368
3 368 387 372
3 368 372 369
3 369 372 373
3 369 373 370
3 370 373 371
3 371 373 374
3 371 374 350
3 350 374 351
3 351 374 375
3 351 375 352
3 352 375 376
3 352 376 353
3 353 376 377
3 353 377 354
3 384 399 385
3 385 399 400
3 385 400 386
3 386 400 401
3 386 401 387
3 387 401 402
3 387 402 372
3 372 402 403
3 372 403 373
3 373 403 404
3 373 404 388
3 373 388 374
3 374 388 389
3 374 389 375
3 375 389 390
3 375 390 376
3 376 390 391
3 376 391 377
3 377 391 392
3 377 392 378
3 378 392 393
3 378 393 379
3 379 393 394
3 379 394 380
3 380 394 395
3 380 395 381
3 381 395 396
3 381 396 382
3 382 396 397
3 382 397 383
3 383 397 398
3 383 398 384
3 384 398 399
3 403 424 404
3 404 424 405
3 404 405 388
3 388 405 406
3 388 406 389
3 389 406 407
3 389 407 390
3 390 407 408
3 390 408 409
3 390 409 391
3 391 409 410
3 391 410 392
3 392 410 411
3 392 411 393
3 393 411 412
3 393 412 394
3 394 412 413
3 394 413 414
3 394 414 395
3 395 414 415
3 395 415 396
3 396 415 416
3 396 416 397
3 397 416 417
3 397 417 398
3 398 417 418
3 398 418 399
3 399 418 419
3 399 419 400
3 400 419 420
3 400 420 421
3 400 421 401
3 401 421 422
3 401 422 423
3 401 423 402
3 402 423 424
3 402 424 403
3 417 435 418
3 418 435 436
3 418 436 437
3 418 437 419
3 419 437 420
3 420 437 438
3 420 438 421
3 421 438 422
3 422 438 439
3 422 439 423
3 423 439 440
3 423 440 424
3 424 440 425
3 424 425 405
3 405 425 426
3 405 426 406
3 406 426 427
3 406 427 407
3 407 427 408
3 408 427 428
3 408 428 409
3 409 428 429
3 409 429 410
3 410 429 430
3 410 430 411
3 411 430 431
3 411 431 412
3 412 431 413
3 413 431 432
3 413 432 414
3 414 432 415
3 415 432 433
3 415 433 416
3 416 433 434
3 416 434 417
3 417 434 435
3 433 450 434
3 434 450 451
3 434 451 452
3 434 452 435
3 435 452 453
3 435 453 454
3 435 454 455
3 435 455 436
3 436 455 456
3 436 456 437
3 437 456 438
3 438 456 457
3 438 457 439
3 439 457 458
3 439 458 440
3 440 458 425
3 425 458 441
3 425 441 426
3 426 441 442
3 426 442 443
3 426 443 444
3 426 444 427
3 427 444 445
3 427 445 446
3 427 446 428
3 428 446 447
3 428 447 429
3 429 447 448
3 429 448 430
3 430 448 431
3 431 448 449
3 431 449 432
3 432 449 433
3 433 449 450
3 446 464 465
3 446 465 447
3 447 465 466
3 447 466 448
3 448 466 467
3 448 467 449
3 449 467 468
3 449 468 469
3 449 469 450
3 450 469 470
3 450 470 451
3 451 470 471
3 451 471 452
3 452 471 453
3 453 471 454
3 454 471 472
3 454 472 455
3 455 472 473
3 455 473 456
3 456 473 474
3 456 474 457
3 457 474 459
3 457 459 460
3 457 460 458
3 458 460 461
3 458 461 441
3 441 461 462
3 441 462 442
3 442 462 443
3 443 462 463
3 443 463 444
3 444 463 445
3 445 463 464
3 445 464 446
3 465 479 466
3 466 479 480
3 466 480 467
3 467 480 481
3 467 481 468
3 468 481 482
3 468 482 469
3 469 482 483
3 469 483 470
3 470 483 484
3 470 484 471
3 471 484 485
3 471 485 472
3 472 485 486
3 472 486 473
3 473 486 487
3 473 487 474
3 474 487 488
3 474 488 459
3 459 488 489
3 459 489 460
3 460 489 475
3 460 475 461
3 461 475 462
3 462 475 476
3 462 476 463
3 463 476 477
3 463 477 464
3 464 477 478
3 464 478 465
3 465 478 479
3 481 497 482
3 482 497 498
3 482 498 483
3 483 498 499
3 483 499 484
3 484 499 500
3 484 500 501
3 484 501 485
3 485 501 502
3 485 502 503
3 485 503 486
3 486 503 504
3 486 504 487
3 487 504 505
3 487 505 488
3 488 505 506
3 488 506 489
3 489 506 507
3 489 507 475
3 475 507 490
3 475 490 476
3 476 490 491
3 476 491 477
3 477 491 492
3 477 492 493
3 477 493 478
3 478 493 494
3 478 494 479
3 479 494 495
3 479 495 480
3 480 495 496
3 480 496 481
3 481 496 497
3 504 519 505
3 505 519 520
3 505 520 506
3 506 520 521
3 506 521 507
3 507 521 522
3 507 522 490
3 490 522 508
3 490 508 491
3 491 508 509
3 491 509 492
3 492 509 493
3 493 509 510
3 493 510 494
3 494 510 511
3 494 511 495
3 495 511 512
3 495 512 496
3 496 512 513
3 496 513 497
3 497 513 514
3 497 514 498
3 498 514 499
3 499 514 515
3 499 515 500
3 500 515 516
3 500 516 501
3 501 516 517
3 501 517 502
3 502 517 503
3 503 517 518
3 503 518 504
3 504 518 519
3 511 525 512
3 512 525 526
3 512 526 513
3 513 526 527
3 513 527 514
3 514 527 528
3 514 528 529
3 514 529 515
3 515 529 530
3 515 530 516
3 516 530 531
3 516 531 517
3 517 531 532
3 517 532 518
3 518 532 533
3 518 533 519
3 519 533 534
3 519 534 520
3 520 534 535
3 520 535 521
3 521 535 536
3 521 536 522
3 522 536 537
3 522 537 508
3 508 537 538
3 508 538 509
3 509 538 523
3 509 523 510
3 510 523 524
3 510 524 511
3 511 524 525
3 531 550 551
3 531 551 532
3 532 551 552
3 532 552 533
3 533 552 539
3 533 539 534
3 534 539 535
3 535 539 540
3 535 540 536
3 536 540 541
3 536 541 537
3 537 541 542
3 537 542 538
3 538 542 543
3 538 543 523
3 523 543 544
3 523 544 524
3 524 544 545
3 524 545 525
3 525 545 546
3 525 546 526
3 526 546 547
3 526 547 527
3 527 547 528
3 528 547 548
3 528 548 529
3 529 548 530
3 530 548 549
3 530 549 531
3 531 549 550
3 544 558 545
3 545 558 559
3 545 559 546
3 546 559 560
3 546 560 547
3 547 560 561
3 547 561 562
3 547 562 548
3 548 562 563
3 548 563 549
3 549 563 564
3 549 564 550
3 550 564 565
3 550 565 566
3 550 566 551
3 551 566 567
3 551 567 552
3 552 567 568
3 552 568 539
3 539 568 569
3 539 569 540
3 540 569 570
3 540 570 553
3 540 553 541
3 541 553 554
3 541 554 542
3 542 554 555
3 542 555 556
3 542 556 543
3 543 556 557
3 543 557 544
3 544 557 558
3 554 575 555
3 555 575 576
3 555 576 556
3 556 576 577
3 556 577 557
3 557 577 578
3 557 578 558
3 558 578 579
3 558 579 580
3 558 580 559
3 559 580 581
3 559 581 560
3 560 581 582
3 560 582 561
3 561 582 583
3 561 583 584
3 561 584 562
3 562 584 585
3 562 585 563
3 563 585 586
3 563 586 564
3 564 586 587
3 564 587 565
3 565 587 588
3 565 588 566
3 566 588 589
3 566 589 567
3 567 589 590
3 567 590 568
3 568 590 591
3 568 591 569
3 569 591 571
3 569 571 570
3 570 571 572
3 570 572 573
3 570 573 553
3 553 573 574
3 553 574 554
3 554 574 575
3 590 605 591
3 591 605 606
3 591 606 571
3 571 606 607
3 571 607 572
3 572 607 608
3 572 608 573
3 573 608 574
3 574 608 609
3 574 609 575
3 575 609 576
3 576 609 610
3 576 610 592
3 576 592 577
3 577 592 593
3 577 593 578
3 578 593 594
3 578 594 579
3 579 594 595
3 579 595 580
3 580 595 596
3 580 596 581
3 581 596 597
3 581 597 582
3 582 597 583
3 583 597 598
3 583 598 584
3 584 598 599
3 584 599 585
3 585 599 600
3 585 600 586
3 586 600 601
3 586 601 587
3 587 601 602
3 587 602 588
3 588 602 603
3 588 603 589
3 589 603 604
3 589 604 590
3 590 604 605
3 595 617 618
3 595 618 596
3 596 618 619
3 596 619 597
3 597 619 620
3 597 620 598
3 598 620 599
3 599 620 621
3 599 621 600
3 600 621 601
3 601 621 622
3 601 622 602
3 602 622 623
3 602 623 603
3 603 623 624
3 603 624 625
3 603 625 626
3 603 626 627
3 603 627 604
3 604 627 628
3 604 628 605
3 605 628 606
3 606 628 629
3 606 629 607
3 607 629 630
3 607 630 608
3 608 630 631
3 608 631 609
3 609 631 611
3 609 611 610
3 610 611 612
3 610 612 592
3 592 612 613
3 592 613 593
3 593 613 614
3 593 614 615
3 593 615 616
3 593 616 594
3 594 616 617
3 594 617 595
3 622 644 645
3 622 645 623
3 623 645 624
3 624 645 646
3 624 646 625
3 625 646 626
3 626 646 647
3 626 647 627
3 627 647 648
3 627 648 649
3 627 649 628
3 628 649 650
3 628 650 629
3 629 650 651
3 629 651 630
3 630 651 632
3 630 632 631
3 631 632 633
3 631 633 611
3 611 633 634
3 611 634 612
3 612 634 613
3 613 634 635
3 613 635 614
3 614 635 615
3 615 635 636
3 615 636 616
3 616 636 637
3 616 637 638
3 616 638 617
3 617 638 639
3 617 639 618
3 618 639 640
3 618 640 619
3 619 640 641
3 619 641 620
3 620 641 642
3 620 642 621
3 621 642 643
3 621 643 644
3 621 644 622
