ply
format ascii 1.0
comment created by MatGeom for Matlab
element vertex 645
property float x
property float y
property float z
element face 1230
property list uchar int vertex_index
end_header
550.874 350.506 220
551.625 352.679 220
552 355.021 220
552 357.531 220
552 360.042 220
552 362.552 220
552 365.063 220
552 367.573 220
551.716 369.973 220
551.092 372.241 220
550.129 374.377 220
548.827 376.381 220
547.185 378.253 220
545.489 380.103 220
543.739 381.862 220
541.838 383.358 220
539.787 384.594 220
537.584 385.569 220
535.306 386.078 220
533.213 385.853 220
531.402 385.062 220
529.874 383.705 220
528.628 381.782 220
527.723 379.511 220
527.297 377.377 220
527.237 375.223 220
527.543 373.051 220
528.217 370.859 220
529 368.613 220
529.71 366.227 220
530.459 363.856 220
531.248 361.5 220
532.075 359.159 220
533.064 356.851 220
534.057 354.546 220
535.183 352.325 220
536.441 350.187 220
537.833 348.133 220
539.357 346.163 220
541.046 344.84 220
542.779 344.229 220
544.557 344.329 220
546.38 345.141 220
548.247 346.664 220
549.748 348.501 220
559.112 351.688 240
560.698 352.881 240
561.792 354.677 240
562.392 357.076 240
562.794 359.515 240
562.996 361.996 240
563 364.518 240
563 367.04 240
563 369.562 240
562.659 371.914 240
561.915 374.064 240
560.768 376.012 240
559.216 377.759 240
557.229 378.822 240
555.141 379.307 240
553.015 379.243 240
550.852 378.632 240
549.003 377.266 240
547.591 375.575 240
546.62 373.625 240
546.089 371.414 240
546.065 368.955 240
546.278 366.464 240
546.639 363.997 240
547.149 361.551 240
547.807 359.128 240
548.564 356.734 240
549.667 354.723 240
551.116 353.095 240
552.912 351.851 240
555.054 350.989 240
557.231 351.057 240
573.655 357.582 260
574.28 359.642 260
574.456 361.895 260
574.184 364.343 260
573.912 366.79 260
573.64 369.238 260
573.102 371.47 260
572.15 373.368 260
570.786 374.933 260
569.009 376.163 260
566.877 376.702 260
564.672 376.672 260
562.54 376.19 260
560.482 375.257 260
558.785 373.728 260
557.498 371.909 260
556.605 369.893 260
556.105 367.68 260
556 365.27 260
556.013 362.812 260
556.309 360.443 260
556.888 358.162 260
557.749 355.971 260
558.892 353.869 260
560.314 351.915 260
561.848 350.66 260
563.494 350.104 260
565.251 350.247 260
567.12 351.09 260
569.09 352.567 260
571.06 354.045 260
572.581 355.716 260
592.783 353.688 300
594.042 355.023 300
594.895 356.921 300
595.263 359.377 300
595.3 361.779 300
595.003 364.126 300
594.375 366.418 300
593.411 368.648 300
591.951 370.269 300
590.249 371.331 300
588.305 371.834 300
586.118 371.78 300
583.726 371.148 300
581.851 370.139 300
580.491 368.752 300
579.649 366.987 300
579.322 364.844 300
579.478 362.348 300
579.634 359.852 300
580.094 357.637 300
581.018 355.85 300
582.406 354.492 300
584.258 353.562 300
586.573 353.061 300
589.049 352.707 300
591.119 352.916 300
597.944 353.612 340
598.893 355.655 340
599.49 357.902 340
599.4 360.25 340
598.946 362.486 340
598.127 364.611 340
596.841 366.195 340
595.053 367.095 340
593.098 367.413 340
591.279 366.964 340
589.737 365.645 340
588.576 363.886 340
587.829 361.829 340
587.498 359.475 340
587.449 357.071 340
587.787 354.81 340
588.511 352.692 340
589.646 351.029 340
591.22 350.144 340
593.093 349.984 340
595.018 350.459 340
596.644 351.772 340
606.708 353.732 360
607.569 355.755 360
608 358.023 360
608 360.535 360
607.62 362.795 360
606.777 364.752 360
605.474 366.404 360
603.733 367.39 360
601.561 367.615 360
599.522 367.217 360
597.903 366.12 360
596.703 364.325 360
595.9 362.192 360
595.485 359.818 360
595.438 357.341 360
595.631 354.903 360
596.063 352.505 360
596.885 350.608 360
598.18 349.47 360
599.784 349.065 360
601.622 349.38 360
603.693 350.416 360
605.416 351.952 360
611.11 347.61 400
613.197 347.737 400
615.32 348.4 400
617.086 349.811 400
618.379 351.474 400
619.199 353.39 400
619.545 355.558 400
619.418 357.979 400
618.785 359.883 400
617.707 361.206 400
616.184 361.949 400
614.215 362.11 400
611.807 361.715 400
609.667 360.934 400
607.813 359.79 400
606.244 358.282 400
604.988 356.418 400
604.609 354.323 400
604.825 352.382 400
605.637 350.596 400
607.046 348.965 400
609.06 348.019 400
618.854 347.428 440
620.147 348.856 440
620.983 350.749 440
621.094 353.069 440
620.863 355.338 440
620.289 357.558 440
619.373 359.728 440
618.021 361.166 440
616.5 361.907 440
614.826 361.942 440
613.425 361.066 440
612.294 359.276 440
611.604 357.268 440
611.354 355.044 440
611.528 352.612 440
611.829 350.317 440
612.583 348.508 440
613.79 347.186 440
615.449 346.35 440
617.18 346.476 440
622.334 352.407 460
622.554 354.511 460
622.011 356.45 460
620.583 358.05 460
618.826 359.175 460
616.782 359.783 460
614.917 359.408 460
613.437 358.351 460
612.497 356.789 460
612.164 354.731 460
612.395 352.217 460
612.726 349.713 460
613.241 347.473 460
614.1 346.077 460
615.237 345.518 460
616.651 345.795 460
618.344 346.909 460
620.229 348.606 460
621.559 350.439 460
622.475 349.525 500
623.478 351.049 500
623.916 353.078 500
623.79 355.613 500
623.608 358.144 500
623.163 360.573 500
622.37 362.849 500
621.323 364.327 500
620.143 364.828 500
618.831 364.352 500
617.593 362.998 500
616.641 360.809 500
616.111 358.416 500
615.879 355.998 500
615.947 353.556 500
616.613 351.465 500
617.863 349.854 500
619.511 348.74 500
621.048 348.63 500
622.533 353.203 540
623.427 354.845 540
623.396 356.632 540
622.44 358.563 540
621.048 360.237 540
619.236 361.611 540
617.311 362.076 540
615.625 361.842 540
614.183 360.906 540
613.313 359.249 540
613.001 356.914 540
613.053 354.611 540
613.792 352.863 540
615.212 351.672 540
616.985 351.058 540
619.11 351.022 540
621.066 351.912 540
625.363 353.453 560
625.652 355.557 560
625.306 357.688 560
624.066 359.488 560
622.48 360.806 560
620.622 361.464 560
618.565 361.282 560
616.697 360.263 560
615.336 358.735 560
614.482 356.701 560
614.189 354.417 560
614.707 352.265 560
615.742 350.368 560
617.186 349.104 560
619.016 348.678 560
621.104 349.012 560
623.123 349.902 560
624.529 351.5 560
620.345 350.854 600
621.75 352.391 600
622.468 354.23 600
622.497 356.372 600
622.056 358.533 600
620.911 360.147 600
619.34 361.178 600
617.664 361.497 600
616.125 360.898 600
614.725 359.379 600
613.827 357.504 600
613.461 355.299 600
613.489 352.884 600
614.059 351.073 600
615.179 349.878 600
616.719 349.301 600
618.441 349.626 600
616.639 356.703 660
615.951 358.762 660
614.781 360.581 660
613.038 361.709 660
611.357 362.134 660
609.995 361.696 660
608.952 360.396 660
608.257 358.375 660
608.159 356.207 660
608.794 354.251 660
609.904 352.667 660
611.49 351.454 660
613.22 351.185 660
614.927 351.753 660
616.292 352.912 660
616.863 354.562 660
607.646 356.053 700
608.549 357.139 700
608.837 358.871 700
608.455 361.235 700
607.854 363.547 700
607.02 365.732 700
605.839 367.079 700
604.474 367.626 700
603.299 367.275 700
602.398 365.997 700
601.783 363.869 700
601.61 361.629 700
602.235 359.544 700
603.341 357.724 700
604.844 356.198 700
606.293 355.651 700
598.293 360.485 740
599.874 361.666 740
600.965 363.412 740
601.565 365.725 740
601.91 368.107 740
601.697 370.257 740
600.897 371.936 740
599.603 373.12 740
598.028 373.459 740
596.232 372.858 740
594.535 371.618 740
593.334 369.882 740
592.629 367.651 740
592.204 365.273 740
592.419 363.205 740
593.328 361.516 740
594.728 360.252 740
596.383 359.908 740
599.81 367.551 760
600.386 369.7 760
600.366 371.992 760
599.766 374.429 760
598.816 376.517 760
597.364 378.095 760
595.697 379.046 760
594.003 379.068 760
592.267 378.158 760
590.817 376.589 760
589.879 374.508 760
589.357 372.07 760
589.064 369.579 760
589.215 367.215 760
589.935 365.264 760
591.154 363.762 760
592.767 363.099 760
594.774 363.277 760
596.959 364.113 760
598.639 365.545 760
587.156 365.24 800
587.781 366.833 800
587.74 368.76 800
586.748 370.814 800
585.418 372.581 800
583.86 373.894 800
582.423 374.225 800
581.157 373.652 800
580.349 372.383 800
580.14 370.452 800
580.504 368.044 800
581.316 366.121 800
582.622 364.766 800
584.422 363.981 800
585.961 364.146 800
587.076 364.496 810
588.331 365.795 810
588.939 367.603 810
588.9 369.92 810
588.523 372.246 810
587.49 374.224 810
586.066 375.833 810
584.413 376.696 810
582.542 376.771 810
580.452 376.058 810
578.529 374.888 810
577.15 373.132 810
576.218 371.165 810
575.721 369.029 810
576.04 367.122 810
577.157 365.522 810
578.704 364.37 810
580.681 363.665 810
583.088 363.409 810
585.236 363.703 810
577.8 363.917 820
579.693 364.699 820
580.971 366.006 820
581.635 367.84 820
581.75 369.893 820
581.318 372.167 820
580.332 374.077 820
578.986 375.515 820
577.28 376.482 820
575.269 376.793 820
573.062 376.316 820
571.327 375.328 820
570.081 373.85 820
569.324 371.884 820
569 369.613 820
569.342 367.474 820
570.17 365.771 820
571.484 364.502 820
573.284 363.669 820
575.504 363.576 820
567.895 363.313 840
569.843 363.86 840
571.383 365.082 840
572.512 366.979 840
573.268 369.113 840
573.422 371.404 840
573.042 373.638 840
572.185 375.244 840
570.838 376.138 840
568.999 376.32 840
566.998 375.808 840
565.346 374.452 840
564.122 372.739 840
563.34 370.753 840
563.083 368.549 840
563.624 366.446 840
564.624 364.654 840
566.048 363.609 840
564.914 364.285 850
566.297 365.848 850
567.021 367.833 850
567.086 370.239 850
566.672 372.473 850
565.658 374.421 850
564.074 376.085 850
562.36 377.084 850
560.645 377.127 850
559.112 376.382 850
557.881 374.961 850
557.132 372.847 850
556.735 370.419 850
556.56 367.97 850
556.868 365.83 850
557.836 364.224 850
559.285 363.168 850
561.173 362.667 850
563.136 363.15 850
563.822 364.926 860
564.908 366.767 860
565.283 368.857 860
564.947 371.195 860
564.293 373.472 860
563.125 375.101 860
561.48 376.05 860
559.624 376.369 860
557.916 375.796 860
556.406 374.293 860
555.29 372.447 860
554.583 370.302 860
554.707 368.088 860
555.375 366.112 860
556.542 364.474 860
558.222 363.517 860
560.414 363.242 860
562.306 363.726 860
553.325 361.679 880
555.06 362.701 880
556.57 364.283 880
557.618 366.348 880
557.95 368.181 880
557.567 369.783 880
556.456 371.098 880
554.588 371.985 880
552.2 372.52 880
550.048 372.451 880
548.17 371.722 880
546.576 370.387 880
545.296 368.588 880
544.708 366.514 880
544.825 364.716 880
545.61 363.249 880
547.062 362.116 880
549.181 361.314 880
551.366 361.217 880
543.338 360.761 890
545.565 360.012 890
547.608 360.054 890
549.467 360.886 890
551.029 362.254 890
552.123 364.146 890
552.497 366.414 890
552.174 368.204 890
551.137 369.483 890
549.387 370.251 890
547.094 370.523 890
544.688 370.119 890
542.455 369.331 890
540.46 368.197 890
539.363 366.783 890
539.164 365.09 890
539.751 363.323 890
541.159 361.882 890
540.961 360.961 900
543.384 361.219 900
545.716 361.919 900
547.914 363.12 900
549.174 364.37 900
549.497 365.67 900
548.882 367.019 900
547.38 368.179 900
545.009 368.978 900
542.583 369.547 900
540.103 369.888 900
538.008 369.495 900
536.325 368.483 900
535.099 366.963 900
534.801 365.245 900
535.506 363.385 900
536.778 361.89 900
538.602 361.082 900
537.447 361.15 910
539.229 362.342 910
540.23 363.928 910
540.446 365.907 910
539.874 367.524 910
538.506 368.758 910
536.459 369.565 910
534.211 369.979 910
531.767 370 910
529.313 370 910
526.867 369.99 910
524.864 369.491 910
523.303 368.504 910
522.184 367.029 910
521.507 365.065 910
521.762 363.075 910
522.558 361.574 910
523.893 360.561 910
525.767 360.036 910
528.182 360 910
530.637 360 910
533.091 360 910
535.361 360.383 910
530.526 361.474 920
531.173 362.809 920
530.955 364.45 920
529.786 366.264 920
528.156 367.759 920
526.066 368.935 920
523.881 369.607 920
521.649 369.721 920
519.642 369.319 920
518.156 368.256 920
517.192 366.534 920
516.764 364.526 920
517.249 362.771 920
518.46 361.36 920
520.101 360.436 920
522.173 360 920
524.629 360 920
527.086 360 920
529.052 360.491 920
521.533 354.717 930
522.511 356.047 930
523 357.95 930
523 360.425 930
523 362.9 930
522.545 364.813 930
521.606 366.127 930
520.184 366.842 930
518.277 366.958 930
515.886 366.476 930
513.464 365.973 930
511.252 365.235 930
509.323 364.147 930
507.676 362.712 930
506.313 360.927 930
505.767 359.068 930
505.984 357.471 930
506.892 356.249 930
508.489 355.402 930
510.776 354.93 930
513.221 354.544 930
515.666 354.158 930
518.11 353.772 930
520.066 353.958 930
516.51 355.572 940
518.25 356.482 940
519.218 357.917 940
519.411 359.876 940
518.935 361.761 940
517.697 363.445 940
515.836 364.792 940
513.929 365.408 940
511.981 365.293 940
510.15 364.481 940
508.775 362.996 940
507.957 361.021 940
507.955 359.252 940
508.771 357.69 940
510.301 356.375 940
512.301 355.41 940
514.487 355.229 940
499.118 352.292 950
501.368 352.304 950
503.593 352.847 950
505.744 353.997 950
507.096 355.213 950
507.537 356.478 950
507.063 357.728 950
505.717 358.547 950
503.546 358.856 950
501.311 358.648 950
499.168 357.865 950
497.391 356.602 950
496.513 355.241 950
496.533 353.781 950
497.417 352.773 950
3 33 71 34
3 34 71 72
3 34 72 35
3 35 72 73
3 35 73 74
3 35 74 36
3 36 74 37
3 37 74 75
3 37 75 38
3 38 75 76
3 38 76 39
3 39 76 40
3 40 76 41
3 41 76 42
3 42 76 45
3 42 45 43
3 43 45 44
3 44 45 46
3 44 46 0
3 0 46 47
3 0 47 1
3 1 47 2
3 2 47 48
3 2 48 3
3 3 48 49
3 3 49 4
3 4 49 50
3 4 50 5
3 5 50 51
3 5 51 6
3 6 51 52
3 6 52 7
3 7 52 53
3 7 53 8
3 8 53 9
3 9 53 54
3 9 54 10
3 10 54 55
3 10 55 11
3 11 55 56
3 11 56 12
3 12 56 57
3 12 57 13
3 13 57 58
3 13 58 14
3 14 58 59
3 14 59 15
3 15 59 16
3 16 59 60
3 16 60 17
3 17 60 61
3 17 61 18
3 18 61 19
3 19 61 20
3 20 61 21
3 21 61 62
3 21 62 22
3 22 62 23
3 23 62 63
3 23 63 24
3 24 63 25
3 25 63 64
3 25 64 26
3 26 64 65
3 26 65 27
3 27 65 66
3 27 66 28
3 28 66 29
3 29 66 67
3 29 67 30
3 30 67 68
3 30 68 31
3 31 68 69
3 31 69 32
3 32 69 70
3 32 70 33
3 33 70 71
3 74 103 104
3 74 104 75
3 75 104 105
3 75 105 76
3 76 105 45
3 45 105 106
3 45 106 46
3 46 106 107
3 46 107 47
3 47 107 48
3 48 107 108
3 48 108 49
3 49 108 77
3 49 77 78
3 49 78 50
3 50 78 79
3 50 79 51
3 51 79 80
3 51 80 52
3 52 80 81
3 52 81 53
3 53 81 82
3 53 82 54
3 54 82 83
3 54 83 55
3 55 83 84
3 55 84 56
3 56 84 85
3 56 85 57
3 57 85 86
3 57 86 58
3 58 86 87
3 58 87 59
3 59 87 88
3 59 88 60
3 60 88 89
3 60 89 61
3 61 89 90
3 61 90 62
3 62 90 91
3 62 91 63
3 63 91 92
3 63 92 64
3 64 92 93
3 64 93 65
3 65 93 94
3 65 94 66
3 66 94 95
3 66 95 67
3 67 95 96
3 67 96 68
3 68 96 97
3 68 97 69
3 69 97 98
3 69 98 70
3 70 98 99
3 70 99 71
3 71 99 100
3 71 100 72
3 72 100 101
3 72 101 73
3 73 101 102
3 73 102 74
3 74 102 103
3 108 110 77
3 77 110 111
3 77 111 78
3 78 111 112
3 78 112 79
3 79 112 113
3 79 113 80
3 80 113 114
3 80 114 81
3 81 114 115
3 81 115 82
3 82 115 116
3 82 116 83
3 83 116 117
3 83 117 84
3 84 117 85
3 85 117 118
3 85 118 86
3 86 118 119
3 86 119 87
3 87 119 88
3 88 119 120
3 88 120 89
3 89 120 121
3 89 121 90
3 90 121 91
3 91 121 122
3 91 122 92
3 92 122 123
3 92 123 93
3 93 123 124
3 93 124 94
3 94 124 125
3 94 125 95
3 95 125 126
3 95 126 96
3 96 126 127
3 96 127 97
3 97 127 128
3 97 128 98
3 98 128 129
3 98 129 99
3 99 129 130
3 99 130 100
3 100 130 131
3 100 131 101
3 101 131 102
3 102 131 132
3 102 132 103
3 103 132 104
3 104 132 133
3 104 133 105
3 105 133 106
3 106 133 134
3 106 134 107
3 107 134 109
3 107 109 108
3 108 109 110
3 132 154 133
3 133 154 155
3 133 155 134
3 134 155 156
3 134 156 109
3 109 156 110
3 110 156 135
3 110 135 111
3 111 135 136
3 111 136 112
3 112 136 137
3 112 137 113
3 113 137 138
3 113 138 114
3 114 138 115
3 115 138 139
3 115 139 116
3 116 139 140
3 116 140 117
3 117 140 141
3 117 141 118
3 118 141 142
3 118 142 119
3 119 142 143
3 119 143 120
3 120 143 144
3 120 144 121
3 121 144 145
3 121 145 122
3 122 145 146
3 122 146 123
3 123 146 124
3 124 146 147
3 124 147 125
3 125 147 148
3 125 148 126
3 126 148 149
3 126 149 127
3 127 149 150
3 127 150 128
3 128 150 129
3 129 150 151
3 129 151 130
3 130 151 152
3 130 152 131
3 131 152 153
3 131 153 132
3 132 153 154
3 154 177 155
3 155 177 178
3 155 178 156
3 156 178 179
3 156 179 135
3 135 179 157
3 135 157 136
3 136 157 158
3 136 158 137
3 137 158 159
3 137 159 138
3 138 159 160
3 138 160 139
3 139 160 161
3 139 161 140
3 140 161 162
3 140 162 141
3 141 162 163
3 141 163 164
3 141 164 142
3 142 164 165
3 142 165 143
3 143 165 166
3 143 166 144
3 144 166 167
3 144 167 145
3 145 167 168
3 145 168 146
3 146 168 169
3 146 169 147
3 147 169 170
3 147 170 148
3 148 170 171
3 148 171 149
3 149 171 172
3 149 172 150
3 150 172 173
3 150 173 151
3 151 173 174
3 151 174 152
3 152 174 175
3 152 175 153
3 153 175 176
3 153 176 154
3 154 176 177
3 169 195 170
3 170 195 196
3 170 196 197
3 170 197 171
3 171 197 198
3 171 198 172
3 172 198 199
3 172 199 173
3 173 199 200
3 173 200 174
3 174 200 201
3 174 201 175
3 175 201 176
3 176 201 180
3 176 180 177
3 177 180 181
3 177 181 178
3 178 181 182
3 178 182 179
3 179 182 183
3 179 183 157
3 157 183 184
3 157 184 158
3 158 184 185
3 158 185 159
3 159 185 186
3 159 186 160
3 160 186 187
3 160 187 161
3 161 187 188
3 161 188 189
3 161 189 162
3 162 189 190
3 162 190 163
3 163 190 191
3 163 191 164
3 164 191 165
3 165 191 192
3 165 192 166
3 166 192 193
3 166 193 167
3 167 193 168
3 168 193 194
3 168 194 169
3 169 194 195
3 194 213 214
3 194 214 195
3 195 214 215
3 195 215 196
3 196 215 197
3 197 215 216
3 197 216 198
3 198 216 217
3 198 217 199
3 199 217 200
3 200 217 218
3 200 218 201
3 201 218 219
3 201 219 180
3 180 219 220
3 180 220 221
3 180 221 181
3 181 221 202
3 181 202 182
3 182 202 203
3 182 203 183
3 183 203 204
3 183 204 184
3 184 204 205
3 184 205 185
3 185 205 186
3 186 205 206
3 186 206 187
3 187 206 207
3 187 207 188
3 188 207 189
3 189 207 208
3 189 208 190
3 190 208 191
3 191 208 209
3 191 209 210
3 191 210 192
3 192 210 211
3 192 211 193
3 193 211 212
3 193 212 213
3 193 213 194
3 208 225 226
3 208 226 209
3 209 226 210
3 210 226 227
3 210 227 211
3 211 227 228
3 211 228 212
3 212 228 229
3 212 229 213
3 213 229 230
3 213 230 214
3 214 230 231
3 214 231 215
3 215 231 232
3 215 232 216
3 216 232 233
3 216 233 217
3 217 233 234
3 217 234 218
3 218 234 235
3 218 235 219
3 219 235 236
3 219 236 220
3 220 236 237
3 220 237 221
3 221 237 238
3 221 238 202
3 202 238 239
3 202 239 203
3 203 239 204
3 204 239 240
3 204 240 205
3 205 240 222
3 205 222 206
3 206 222 223
3 206 223 207
3 207 223 224
3 207 224 225
3 207 225 208
3 236 257 237
3 237 257 258
3 237 258 259
3 237 259 238
3 238 259 241
3 238 241 242
3 238 242 239
3 239 242 243
3 239 243 240
3 240 243 244
3 240 244 222
3 222 244 245
3 222 245 223
3 223 245 224
3 224 245 246
3 224 246 225
3 225 246 247
3 225 247 226
3 226 247 248
3 226 248 249
3 226 249 227
3 227 249 250
3 227 250 228
3 228 250 251
3 228 251 229
3 229 251 252
3 229 252 230
3 230 252 253
3 230 253 231
3 231 253 232
3 232 253 254
3 232 254 233
3 233 254 255
3 233 255 234
3 234 255 256
3 234 256 235
3 235 256 257
3 235 257 236
3 243 260 244
3 244 260 261
3 244 261 262
3 244 262 245
3 245 262 263
3 245 263 246
3 246 263 264
3 246 264 247
3 247 264 265
3 247 265 248
3 248 265 266
3 248 266 249
3 249 266 250
3 250 266 251
3 251 266 267
3 251 267 252
3 252 267 268
3 252 268 269
3 252 269 253
3 253 269 270
3 253 270 254
3 254 270 271
3 254 271 255
3 255 271 272
3 255 272 256
3 256 272 273
3 256 273 274
3 256 274 257
3 257 274 258
3 258 274 275
3 258 275 259
3 259 275 241
3 241 275 276
3 241 276 242
3 242 276 243
3 243 276 260
3 261 277 262
3 262 277 278
3 262 278 263
3 263 278 279
3 263 279 280
3 263 280 264
3 264 280 281
3 264 281 265
3 265 281 282
3 265 282 266
3 266 282 283
3 266 283 267
3 267 283 284
3 267 284 268
3 268 284 285
3 268 285 269
3 269 285 286
3 269 286 270
3 270 286 287
3 270 287 271
3 271 287 288
3 271 288 272
3 272 288 289
3 272 289 273
3 273 289 290
3 273 290 274
3 274 290 291
3 274 291 275
3 275 291 292
3 275 292 276
3 276 292 293
3 276 293 294
3 276 294 260
3 260 294 261
3 261 294 277
3 290 309 310
3 290 310 291
3 291 310 311
3 291 311 292
3 292 311 295
3 292 295 293
3 293 295 296
3 293 296 294
3 294 296 277
3 277 296 297
3 277 297 278
3 278 297 298
3 278 298 279
3 279 298 299
3 279 299 280
3 280 299 300
3 280 300 281
3 281 300 301
3 281 301 282
3 282 301 302
3 282 302 283
3 283 302 303
3 283 303 284
3 284 303 304
3 284 304 285
3 285 304 305
3 285 305 286
3 286 305 306
3 286 306 287
3 287 306 307
3 287 307 288
3 288 307 308
3 288 308 289
3 289 308 309
3 289 309 290
3 295 325 326
3 295 326 296
3 296 326 327
3 296 327 297
3 297 327 312
3 297 312 298
3 298 312 313
3 298 313 299
3 299 313 314
3 299 314 300
3 300 314 301
3 301 314 315
3 301 315 302
3 302 315 316
3 302 316 303
3 303 316 317
3 303 317 304
3 304 317 318
3 304 318 305
3 305 318 319
3 305 319 306
3 306 319 320
3 306 320 307
3 307 320 321
3 307 321 308
3 308 321 322
3 308 322 309
3 309 322 323
3 309 323 310
3 310 323 311
3 311 323 324
3 311 324 295
3 295 324 325
3 315 334 335
3 315 335 316
3 316 335 336
3 316 336 317
3 317 336 337
3 317 337 318
3 318 337 338
3 318 338 319
3 319 338 339
3 319 339 320
3 320 339 340
3 320 340 321
3 321 340 322
3 322 340 341
3 322 341 323
3 323 341 342
3 323 342 324
3 324 342 343
3 324 343 328
3 324 328 325
3 325 328 329
3 325 329 326
3 326 329 330
3 326 330 327
3 327 330 331
3 327 331 312
3 312 331 332
3 312 332 313
3 313 332 314
3 314 332 333
3 314 333 315
3 315 333 334
3 335 353 336
3 336 353 354
3 336 354 337
3 337 354 355
3 337 355 338
3 338 355 356
3 338 356 339
3 339 356 357
3 339 357 340
3 340 357 358
3 340 358 341
3 341 358 359
3 341 359 360
3 341 360 342
3 342 360 361
3 342 361 344
3 342 344 343
3 343 344 328
3 328 344 345
3 328 345 329
3 329 345 346
3 329 346 330
3 330 346 347
3 330 347 331
3 331 347 348
3 331 348 332
3 332 348 349
3 332 349 333
3 333 349 350
3 333 350 351
3 333 351 334
3 334 351 352
3 334 352 353
3 334 353 335
3 350 366 351
3 351 366 367
3 351 367 352
3 352 367 368
3 352 368 369
3 352 369 353
3 353 369 370
3 353 370 354
3 354 370 371
3 354 371 355
3 355 371 372
3 355 372 356
3 356 372 373
3 356 373 357
3 357 373 374
3 357 374 358
3 358 374 375
3 358 375 359
3 359 375 376
3 359 376 377
3 359 377 360
3 360 377 378
3 360 378 361
3 361 378 379
3 361 379 344
3 344 379 380
3 344 380 345
3 345 380 381
3 345 381 346
3 346 381 362
3 346 362 363
3 346 363 347
3 347 363 364
3 347 364 348
3 348 364 365
3 348 365 349
3 349 365 366
3 349 366 350
3 372 390 391
3 372 391 373
3 373 391 392
3 373 392 374
3 374 392 393
3 374 393 375
3 375 393 376
3 376 393 394
3 376 394 377
3 377 394 378
3 378 394 379
3 379 394 395
3 379 395 380
3 380 395 396
3 380 396 381
3 381 396 382
3 381 382 362
3 362 382 383
3 362 383 363
3 363 383 384
3 363 384 364
3 364 384 385
3 364 385 365
3 365 385 386
3 365 386 366
3 366 386 367
3 367 386 387
3 367 387 368
3 368 387 369
3 369 387 388
3 369 388 370
3 370 388 371
3 371 388 389
3 371 389 390
3 371 390 372
3 388 406 389
3 389 406 407
3 389 407 390
3 390 407 408
3 390 408 391
3 391 408 409
3 391 409 392
3 392 409 410
3 392 410 411
3 392 411 393
3 393 411 412
3 393 412 413
3 393 413 394
3 394 413 414
3 394 414 395
3 395 414 415
3 395 415 396
3 396 415 416
3 396 416 382
3 382 416 397
3 382 397 398
3 382 398 383
3 383 398 399
3 383 399 400
3 383 400 384
3 384 400 401
3 384 401 385
3 385 401 402
3 385 402 386
3 386 402 403
3 386 403 404
3 386 404 387
3 387 404 405
3 387 405 406
3 387 406 388
3 412 433 434
3 412 434 413
3 413 434 435
3 413 435 414
3 414 435 436
3 414 436 415
3 415 436 417
3 415 417 416
3 416 417 418
3 416 418 397
3 397 418 419
3 397 419 398
3 398 419 420
3 398 420 399
3 399 420 400
3 400 420 421
3 400 421 422
3 400 422 401
3 401 422 423
3 401 423 402
3 402 423 424
3 402 424 403
3 403 424 425
3 403 425 404
3 404 425 405
3 405 425 426
3 405 426 406
3 406 426 427
3 406 427 407
3 407 427 428
3 407 428 429
3 407 429 408
3 408 429 430
3 408 430 409
3 409 430 431
3 409 431 410
3 410 431 432
3 410 432 411
3 411 432 433
3 411 433 412
3 423 443 444
3 423 444 424
3 424 444 445
3 424 445 425
3 425 445 446
3 425 446 426
3 426 446 447
3 426 447 427
3 427 447 448
3 427 448 428
3 428 448 449
3 428 449 429
3 429 449 430
3 430 449 450
3 430 450 431
3 431 450 451
3 431 451 432
3 432 451 452
3 432 452 433
3 433 452 453
3 433 453 434
3 434 453 454
3 434 454 435
3 435 454 437
3 435 437 436
3 436 437 438
3 436 438 417
3 417 438 439
3 417 439 418
3 418 439 419
3 419 439 440
3 419 440 420
3 420 440 441
3 420 441 421
3 421 441 442
3 421 442 422
3 422 442 443
3 422 443 423
3 445 461 446
3 446 461 462
3 446 462 463
3 446 463 447
3 447 463 464
3 447 464 448
3 448 464 465
3 448 465 449
3 449 465 466
3 449 466 450
3 450 466 467
3 450 467 451
3 451 467 468
3 451 468 452
3 452 468 469
3 452 469 453
3 453 469 470
3 453 470 454
3 454 470 471
3 454 471 472
3 454 472 437
3 437 472 473
3 437 473 438
3 438 473 455
3 438 455 439
3 439 455 456
3 439 456 440
3 440 456 457
3 440 457 441
3 441 457 458
3 441 458 442
3 442 458 459
3 442 459 443
3 443 459 460
3 443 460 444
3 444 460 461
3 444 461 445
3 468 486 487
3 468 487 469
3 469 487 488
3 469 488 470
3 470 488 471
3 471 488 489
3 471 489 472
3 472 489 490
3 472 490 473
3 473 490 491
3 473 491 455
3 455 491 474
3 455 474 456
3 456 474 475
3 456 475 457
3 457 475 476
3 457 476 458
3 458 476 477
3 458 477 459
3 459 477 478
3 459 478 460
3 460 478 479
3 460 479 461
3 461 479 480
3 461 480 462
3 462 480 481
3 462 481 463
3 463 481 482
3 463 482 464
3 464 482 465
3 465 482 483
3 465 483 466
3 466 483 484
3 466 484 467
3 467 484 485
3 467 485 486
3 467 486 468
3 479 499 480
3 480 499 500
3 480 500 481
3 481 500 501
3 481 501 482
3 482 501 502
3 482 502 483
3 483 502 503
3 483 503 484
3 484 503 504
3 484 504 485
3 485 504 505
3 485 505 486
3 486 505 506
3 486 506 507
3 486 507 487
3 487 507 508
3 487 508 488
3 488 508 509
3 488 509 489
3 489 509 510
3 489 510 490
3 490 510 492
3 490 492 491
3 491 492 474
3 474 492 493
3 474 493 475
3 475 493 494
3 475 494 476
3 476 494 495
3 476 495 477
3 477 495 496
3 477 496 497
3 477 497 478
3 478 497 498
3 478 498 499
3 478 499 479
3 497 518 519
3 497 519 498
3 498 519 520
3 498 520 499
3 499 520 521
3 499 521 500
3 500 521 522
3 500 522 501
3 501 522 502
3 502 522 523
3 502 523 503
3 503 523 524
3 503 524 504
3 504 524 525
3 504 525 505
3 505 525 526
3 505 526 527
3 505 527 506
3 506 527 507
3 507 527 528
3 507 528 508
3 508 528 511
3 508 511 509
3 509 511 512
3 509 512 510
3 510 512 513
3 510 513 492
3 492 513 514
3 492 514 493
3 493 514 515
3 493 515 494
3 494 515 516
3 494 516 495
3 495 516 517
3 495 517 496
3 496 517 518
3 496 518 497
3 517 535 518
3 518 535 536
3 518 536 519
3 519 536 537
3 519 537 520
3 520 537 521
3 521 537 538
3 521 538 522
3 522 538 539
3 522 539 523
3 523 539 540
3 523 540 524
3 524 540 541
3 524 541 525
3 525 541 542
3 525 542 526
3 526 542 543
3 526 543 544
3 526 544 527
3 527 544 545
3 527 545 528
3 528 545 546
3 528 546 511
3 511 546 529
3 511 529 512
3 512 529 530
3 512 530 513
3 513 530 514
3 514 530 531
3 514 531 515
3 515 531 532
3 515 532 516
3 516 532 533
3 516 533 534
3 516 534 517
3 517 534 535
3 539 556 557
3 539 557 540
3 540 557 558
3 540 558 541
3 541 558 559
3 541 559 542
3 542 559 560
3 542 560 543
3 543 560 561
3 543 561 562
3 543 562 544
3 544 562 563
3 544 563 564
3 544 564 545
3 545 564 565
3 545 565 546
3 546 565 566
3 546 566 529
3 529 566 567
3 529 567 530
3 530 567 568
3 530 568 531
3 531 568 569
3 531 569 532
3 532 569 547
3 532 547 548
3 532 548 533
3 533 548 549
3 533 549 534
3 534 549 550
3 534 550 551
3 534 551 535
3 535 551 552
3 535 552 536
3 536 552 553
3 536 553 537
3 537 553 554
3 537 554 555
3 537 555 538
3 538 555 556
3 538 556 539
3 547 570 548
3 548 570 571
3 548 571 549
3 549 571 572
3 549 572 550
3 550 572 551
3 551 572 573
3 551 573 552
3 552 573 553
3 553 573 574
3 553 574 554
3 554 574 575
3 554 575 555
3 555 575 576
3 555 576 556
3 556 576 577
3 556 577 557
3 557 577 578
3 557 578 558
3 558 578 579
3 558 579 559
3 559 579 580
3 559 580 560
3 560 580 581
3 560 581 561
3 561 581 562
3 562 581 582
3 562 582 563
3 563 582 564
3 564 582 583
3 564 583 565
3 565 583 584
3 565 584 566
3 566 584 585
3 566 585 567
3 567 585 586
3 567 586 568
3 568 586 587
3 568 587 569
3 569 587 588
3 569 588 547
3 547 588 570
3 580 602 603
3 580 603 581
3 581 603 604
3 581 604 582
3 582 604 605
3 582 605 606
3 582 606 583
3 583 606 607
3 583 607 584
3 584 607 608
3 584 608 585
3 585 608 609
3 585 609 586
3 586 609 610
3 586 610 587
3 587 610 611
3 587 611 588
3 588 611 612
3 588 612 589
3 588 589 570
3 570 589 590
3 570 590 591
3 570 591 571
3 571 591 592
3 571 592 572
3 572 592 573
3 573 592 593
3 573 593 594
3 573 594 574
3 574 594 595
3 574 595 596
3 574 596 597
3 574 597 575
3 575 597 598
3 575 598 576
3 576 598 599
3 576 599 577
3 577 599 600
3 577 600 578
3 578 600 601
3 578 601 579
3 579 601 602
3 579 602 580
3 600 622 601
3 601 622 623
3 601 623 602
3 602 623 624
3 602 624 603
3 603 624 625
3 603 625 604
3 604 625 605
3 605 625 626
3 605 626 606
3 606 626 607
3 607 626 627
3 607 627 608
3 608 627 628
3 608 628 609
3 609 628 629
3 609 629 610
3 610 629 613
3 610 613 611
3 611 613 614
3 611 614 612
3 612 614 589
3 589 614 590
3 590 614 615
3 590 615 591
3 591 615 616
3 591 616 592
3 592 616 617
3 592 617 593
3 593 617 594
3 594 617 618
3 594 618 595
3 595 618 596
3 596 618 597
3 597 618 619
3 597 619 598
3 598 619 620
3 598 620 599
3 599 620 621
3 599 621 600
3 600 621 622
3 626 644 627
3 627 644 630
3 627 630 628
3 628 630 631
3 628 631 629
3 629 631 632
3 629 632 613
3 613 632 614
3 614 632 633
3 614 633 615
3 615 633 634
3 615 634 616
3 616 634 635
3 616 635 617
3 617 635 636
3 617 636 618
3 618 636 637
3 618 637 619
3 619 637 638
3 619 638 620
3 620 638 639
3 620 639 621
3 621 639 640
3 621 640 622
3 622 640 623
3 623 640 641
3 623 641 624
3 624 641 642
3 624 642 625
3 625 642 643
3 625 643 626
3 626 643 644
